<?xml version="1.0" standalone="no"?>
<!DOCTYPE svg PUBLIC "-//W3C//DTD SVG 20010904//EN"
 "http://www.w3.org/TR/2001/REC-SVG-20010904/DTD/svg10.dtd">
<svg version="1.0" xmlns="http://www.w3.org/2000/svg"
 width="1020.000000pt" height="1020.000000pt" viewBox="0 0 1020.000000 1020.000000"
 preserveAspectRatio="xMidYMid meet">
<metadata>
Created by potrace 1.14, written by Peter Selinger 2001-2017
</metadata>
<g transform="translate(0.000000,1020.000000) scale(0.100000,-0.100000)"
fill="#000000" stroke="none">
<path d="M4123 9052 c-13 -2 -23 -6 -23 -10 0 -4 -18 -7 -40 -7 -22 -1 -40 4
-40 9 0 6 -5 5 -12 -2 -8 -8 -17 -8 -31 -1 -14 8 -18 8 -12 0 4 -8 -1 -10 -18
-7 -13 2 -30 0 -38 -4 -7 -5 -18 -5 -25 1 -8 7 -17 5 -26 -4 -9 -10 -20 -12
-36 -6 -13 5 -29 6 -35 2 -7 -5 -33 -8 -58 -9 -25 0 -52 -5 -60 -10 -19 -12
-40 -14 -34 -4 8 12 -46 1 -64 -13 -12 -10 -13 -9 -7 2 6 8 -1 7 -18 -4 -19
-13 -25 -14 -21 -4 4 12 -11 14 -80 12 -46 -1 -94 -7 -106 -13 -15 -8 -19 -9
-15 -1 10 16 -102 18 -114 3 -3 -4 -18 -7 -35 -8 -16 0 -50 -6 -75 -14 -25 -7
-85 -14 -135 -15 -89 -3 -166 -10 -215 -21 -23 -5 -115 -13 -215 -18 -22 -1
-50 -7 -61 -13 -23 -13 -46 -18 -144 -29 -100 -11 -165 -20 -165 -24 0 -7 -95
-7 -100 0 -4 6 -12 7 -18 3 -12 -8 -29 -12 -58 -17 -8 -1 -33 -10 -54 -20 -21
-10 -56 -19 -77 -20 -21 0 -38 -4 -38 -7 0 -3 -7 -6 -15 -6 -8 0 -15 5 -15 10
0 6 -5 5 -12 -1 -7 -5 -24 -10 -38 -11 -33 0 -52 -5 -68 -14 -7 -5 -26 -9 -42
-9 -17 -1 -30 -6 -30 -12 0 -6 -4 -5 -9 3 -7 10 -13 11 -31 1 -12 -6 -28 -9
-35 -6 -8 3 -17 1 -20 -4 -3 -5 -13 -9 -23 -9 -29 0 -107 -17 -122 -26 -6 -3
-10 -1 -10 6 0 8 -4 8 -12 1 -7 -6 -42 -16 -78 -22 -36 -6 -69 -15 -75 -20 -5
-4 -28 -10 -50 -13 -22 -3 -80 -15 -130 -26 -49 -12 -110 -26 -135 -31 -25 -6
-52 -12 -60 -14 -8 -3 -21 -5 -27 -5 -7 -1 -13 -9 -13 -18 0 -16 -2 -16 -10
-3 -8 11 -9 7 -4 -15 7 -28 7 -29 -10 -12 -10 9 -22 17 -29 17 -6 0 -2 -7 9
-16 10 -8 13 -12 5 -8 -11 5 -13 3 -8 -10 4 -10 7 -21 7 -24 0 -4 15 -8 34 -8
24 -1 33 3 29 11 -2 7 0 16 6 20 6 3 11 -1 11 -11 0 -16 1 -16 16 2 8 10 13
14 10 7 -4 -6 2 -18 13 -25 14 -10 17 -18 11 -28 -5 -8 -5 -19 1 -26 6 -8 4
-16 -8 -25 -11 -9 -14 -10 -9 -1 4 7 2 12 -6 12 -11 0 -10 2 0 9 11 7 10 10
-3 15 -9 3 -22 3 -27 -1 -6 -3 -8 -1 -5 5 5 6 -1 8 -14 5 -16 -5 -18 -8 -7
-15 8 -6 2 -7 -19 -4 -30 4 -32 3 -22 -16 6 -11 8 -22 5 -25 -7 -7 -27 7 -22
16 3 4 -1 8 -9 8 -13 0 -12 -4 2 -19 9 -10 24 -18 35 -18 10 0 18 -4 18 -10 0
-5 -9 -10 -19 -10 -11 0 -23 -5 -26 -10 -4 -6 -10 -8 -15 -5 -16 10 -22 -15
-8 -32 11 -14 11 -16 -1 -8 -9 5 -19 2 -28 -11 -13 -17 -13 -17 -9 6 2 14 5
27 6 30 2 3 2 9 1 13 -1 5 3 6 9 2 5 -3 10 -1 10 4 0 6 -5 11 -11 11 -8 0 -8
5 1 15 7 8 17 12 23 8 6 -3 7 -1 3 5 -10 17 -49 -5 -42 -24 3 -8 1 -14 -4 -14
-6 0 -9 -3 -9 -7 3 -20 -2 -34 -11 -28 -6 3 -15 -4 -20 -17 -10 -22 -10 -22
-7 5 3 15 0 27 -4 27 -9 0 -13 -15 -10 -33 1 -5 -3 -6 -8 -3 -14 9 -38 -3 -38
-19 0 -8 4 -15 9 -15 4 0 8 7 8 16 0 8 5 12 11 9 6 -4 8 -13 5 -21 -6 -15 7
-23 40 -28 10 -2 20 -9 22 -17 2 -8 0 -10 -5 -4 -4 6 -17 10 -28 10 -11 -1
-23 3 -26 9 -4 5 -12 -1 -18 -13 -7 -12 -16 -19 -20 -17 -4 3 -8 -1 -8 -9 0
-8 3 -13 5 -10 3 3 12 -1 20 -8 13 -10 15 -9 9 5 -3 10 -2 20 3 23 6 4 10 2
10 -4 0 -5 3 -17 7 -27 5 -13 3 -15 -7 -9 -8 5 -11 4 -6 -3 10 -16 -33 8 -66
37 -15 13 -25 28 -22 33 3 4 -1 8 -8 8 -7 0 -14 -11 -14 -25 -1 -15 3 -24 10
-23 21 5 62 -36 58 -57 -4 -19 -3 -19 10 -2 12 16 15 16 33 3 11 -9 14 -16 8
-16 -7 0 -13 -4 -13 -9 0 -5 8 -8 17 -6 10 1 24 -2 30 -8 9 -6 13 -6 13 2 0 8
5 9 19 1 14 -7 22 -7 27 2 4 6 3 9 -2 5 -5 -3 -17 1 -27 8 -11 7 -14 16 -8 19
5 4 12 2 16 -4 8 -13 25 -13 25 1 0 5 -4 8 -9 4 -6 -3 -14 3 -20 12 -6 10 -11
12 -11 5 0 -16 -40 7 -40 24 0 16 28 25 36 12 4 -6 3 -8 -4 -4 -6 3 -13 2 -16
-3 -13 -20 14 -20 32 0 15 15 22 17 27 8 5 -7 4 -10 -2 -6 -6 4 -13 1 -16 -7
-8 -20 4 -28 21 -13 11 8 14 8 9 0 -4 -7 2 -18 15 -27 18 -13 19 -16 5 -16
-19 0 -23 -15 -5 -26 7 -4 8 -3 4 4 -9 15 35 12 47 -3 4 -6 7 -2 5 9 -2 12 4
20 16 22 28 4 39 -5 26 -21 -13 -15 5 -16 28 -1 11 7 12 4 3 -13 -13 -24 -4
-29 13 -6 6 8 29 17 51 19 24 2 39 8 37 15 -1 8 3 9 15 3 26 -12 48 -8 45 8
-2 8 0 11 5 7 4 -5 8 -14 8 -20 0 -7 9 -10 20 -9 11 2 17 0 12 -4 -4 -4 -17
-8 -30 -10 -12 -1 -25 -3 -29 -3 -5 -1 -8 -6 -8 -12 0 -8 4 -8 14 0 12 10 17
8 26 -9 6 -11 15 -18 21 -15 5 4 9 1 9 -4 0 -6 -9 -11 -20 -11 -14 0 -20 7
-20 23 -1 22 -1 22 -23 -4 -22 -24 -55 -30 -41 -7 5 7 2 8 -6 3 -10 -6 -6 -14
16 -32 33 -26 44 -28 63 -10 11 10 13 10 7 0 -4 -8 -1 -13 8 -13 9 0 16 -4 16
-10 0 -14 -13 -13 -28 2 -9 9 -12 9 -12 0 0 -7 4 -12 10 -12 5 0 7 -6 4 -14
-4 -11 -12 -13 -29 -6 -16 6 -27 6 -31 -2 -4 -6 -3 -9 2 -5 5 3 18 -1 29 -10
19 -14 19 -14 -8 -8 -23 6 -26 5 -21 -10 4 -10 14 -15 25 -12 11 3 17 1 14 -3
-3 -4 -28 -7 -55 -6 -42 2 -50 0 -45 -13 4 -12 2 -12 -9 2 -18 23 -30 22 -23
-2 3 -15 1 -18 -11 -14 -11 5 -13 2 -8 -8 4 -8 1 -6 -8 4 -8 11 -13 24 -10 31
2 6 -1 20 -9 29 -12 17 -14 17 -42 -8 -21 -18 -24 -24 -10 -19 18 7 19 6 5
-11 -14 -17 -14 -17 8 -4 20 12 24 12 32 -1 15 -23 12 -34 -5 -20 -9 7 -18 10
-22 6 -3 -3 -2 -6 4 -6 6 0 14 -7 17 -16 5 -13 4 -14 -7 -6 -8 7 -17 9 -20 5
-4 -3 -7 -2 -7 3 0 5 -13 9 -29 10 -35 1 -32 -25 3 -27 17 -1 17 -2 3 -6 -9
-2 -14 -9 -11 -15 5 -7 2 -8 -7 -2 -8 4 -27 7 -43 5 -15 -1 -26 1 -23 7 5 7
-14 8 -55 3 -5 -1 -8 -9 -8 -18 0 -15 2 -15 9 -4 13 21 44 24 37 4 -4 -10 -2
-13 8 -10 9 4 13 0 11 -11 -1 -9 3 -21 9 -25 7 -6 6 -7 -4 -4 -8 2 -14 8 -13
13 1 5 -14 9 -32 9 -18 0 -31 -3 -28 -8 6 -10 -23 -37 -32 -29 -5 4 -4 1 0 -7
6 -10 4 -13 -7 -9 -9 4 -15 0 -15 -8 0 -16 13 -19 22 -4 9 14 35 -7 35 -26 0
-8 4 -14 8 -14 5 0 9 7 9 15 0 8 -5 15 -11 15 -6 0 -5 5 2 12 10 9 16 8 30 -6
9 -11 12 -16 5 -12 -6 3 -14 2 -18 -4 -3 -5 -1 -10 4 -10 12 0 9 -35 -3 -47
-4 -5 -6 -1 -4 7 2 8 -2 14 -9 13 -6 -2 -14 5 -17 15 -7 21 -66 30 -66 10 0
-9 -4 -8 -11 2 -8 12 -10 12 -7 1 2 -8 12 -15 21 -17 9 -1 15 2 11 7 -3 5 -1
9 5 9 5 0 9 -8 8 -18 -1 -13 -7 -17 -23 -14 -12 2 -25 -1 -28 -7 -9 -14 -26
-14 -26 -1 0 5 3 9 8 9 19 -3 23 2 12 16 -10 12 -10 18 -1 29 8 10 9 16 1 21
-6 4 -9 1 -8 -6 2 -6 -3 -14 -11 -17 -9 -3 -11 0 -6 8 6 9 4 11 -4 6 -9 -6 -8
-12 4 -26 15 -17 15 -19 -2 -28 -17 -10 -17 -11 1 -31 15 -17 22 -19 28 -9 6
8 7 4 3 -11 -4 -14 -3 -21 2 -18 5 4 10 0 10 -8 0 -8 -4 -12 -8 -9 -4 2 -9 1
-12 -3 -2 -5 -2 -2 0 5 1 8 -2 10 -9 6 -8 -5 -9 -2 -4 11 5 15 4 16 -8 6 -11
-9 -16 -9 -21 0 -6 8 -9 8 -15 -1 -6 -9 -11 -6 -20 10 -13 24 -7 25 45 4 18
-7 18 -6 6 9 -7 9 -17 15 -21 12 -10 -6 -8 15 3 32 4 6 3 14 -3 18 -5 3 -10
-1 -10 -9 0 -9 -6 -16 -12 -16 -10 0 -10 -2 0 -9 10 -6 8 -10 -8 -14 -21 -5
-21 -6 -5 -38 11 -21 20 -28 24 -20 9 14 37 5 45 -14 6 -16 46 -8 46 9 0 6 4
5 9 -3 5 -7 27 -15 50 -17 23 -2 47 -6 54 -10 9 -6 8 -3 -1 8 -7 9 -22 15 -33
13 -11 -2 -17 0 -14 6 8 13 -9 11 -22 -2 -8 -8 -13 -8 -17 0 -4 6 0 11 8 11 9
0 16 5 16 12 0 6 9 3 21 -8 12 -10 23 -17 25 -14 2 3 13 -3 24 -12 24 -21 36
-23 46 -6 4 6 3 8 -3 5 -6 -4 -16 0 -22 7 -10 12 -9 14 6 11 10 -2 20 -4 23
-5 3 -1 8 -2 11 -2 4 1 4 -8 1 -20 -3 -15 -1 -19 9 -16 8 3 13 16 12 29 -2 21
-2 22 8 6 9 -15 13 -16 26 -5 15 12 15 11 4 -10 -7 -13 -10 -26 -7 -30 3 -3 6
0 6 6 0 7 9 12 21 12 11 0 18 -4 14 -10 -3 -5 7 -3 22 5 24 13 29 12 47 -3 18
-16 19 -16 12 3 -4 11 -4 16 0 13 4 -4 16 -3 27 3 15 8 18 8 12 -1 -5 -9 -1
-10 15 -5 19 6 22 4 17 -9 -7 -19 9 -22 17 -3 3 6 3 2 1 -9 -4 -13 1 -29 11
-39 15 -14 15 -18 3 -26 -8 -5 -10 -9 -5 -9 6 0 5 -5 -2 -12 -9 -9 -15 -9 -24
1 -11 10 -9 11 7 5 17 -7 18 -5 8 8 -7 8 -10 18 -6 21 6 6 -26 11 -53 8 -6 -1
-11 6 -11 14 0 9 6 14 13 11 7 -3 15 2 18 10 5 12 1 14 -17 9 -28 -9 -46 -25
-27 -25 11 0 11 -3 2 -12 -7 -7 -12 -17 -12 -23 0 -5 5 -3 10 5 8 13 10 13 10
-1 0 -23 -11 -30 -27 -18 -8 8 -13 8 -13 1 0 -16 23 -21 44 -10 14 8 17 7 11
-4 -7 -11 -5 -11 6 0 12 11 12 14 0 21 -9 6 -10 11 -2 15 6 4 11 2 11 -4 0 -6
5 -8 11 -4 8 5 8 1 0 -14 -8 -15 -8 -22 2 -26 6 -3 -1 -5 -18 -4 -16 1 -38 -3
-48 -8 -15 -9 -9 -11 29 -12 26 -1 50 -4 53 -7 2 -3 15 2 29 11 25 16 25 16 9
-7 -19 -26 -39 -31 -73 -19 -21 8 -24 7 -24 -14 0 -24 -17 -44 -35 -40 -34 6
-54 18 -49 28 3 6 -3 1 -13 -12 -15 -18 -21 -20 -31 -10 -9 9 -12 9 -12 -4 0
-8 -8 -22 -17 -29 -16 -13 -17 -12 -5 3 10 12 10 18 1 24 -8 4 -9 3 -5 -4 4
-7 2 -12 -5 -12 -6 0 -9 -8 -6 -19 3 -13 0 -18 -7 -15 -7 3 -13 18 -13 34 0
16 4 27 9 24 13 -8 9 3 -6 15 -11 9 -13 5 -12 -20 0 -18 -5 -34 -12 -36 -8 -3
-10 2 -6 14 5 14 4 15 -4 4 -6 -8 -17 -11 -26 -8 -19 7 -33 -12 -16 -23 8 -5
4 -9 -11 -13 -13 -3 -28 -2 -35 4 -15 12 -22 1 -20 -31 1 -16 7 -24 16 -22 13
3 13 1 1 -10 -11 -10 -14 -10 -18 0 -3 6 -9 12 -14 12 -6 0 -7 -6 -3 -12 5 -8
1 -8 -10 1 -9 8 -15 23 -13 32 3 10 -2 20 -10 24 -16 5 -15 -6 2 -47 6 -14 2
-16 -21 -12 -29 5 -46 22 -38 36 3 4 3 8 0 8 -3 0 -13 -14 -21 -31 -16 -30
-17 -31 -38 -13 -12 11 -19 15 -15 10 4 -5 -4 -18 -18 -28 -29 -23 -43 -18
-19 6 9 9 12 16 6 16 -5 0 -13 -5 -16 -10 -4 -6 -11 -8 -16 -4 -5 3 -6 10 -3
16 4 6 -3 4 -15 -5 -13 -8 -31 -13 -40 -10 -13 4 -13 3 -2 -5 8 -6 16 -18 17
-27 1 -9 5 -20 9 -23 3 -4 4 6 1 21 -3 17 -1 27 5 25 6 -2 10 -7 9 -12 -3 -14
23 -25 39 -17 20 10 43 3 35 -11 -5 -7 -2 -8 7 -2 19 11 79 13 79 2 0 -5 5 -6
11 -2 19 11 89 11 89 0 0 -7 3 -8 8 -1 9 12 84 16 76 4 -8 -14 20 -11 35 4 7
6 12 8 11 2 -5 -24 1 -27 16 -9 11 13 17 15 20 7 3 -7 10 -13 15 -13 6 0 8 3
6 8 -3 4 6 8 19 8 24 2 24 1 7 -13 -17 -14 -17 -14 0 -9 10 3 23 6 28 6 6 0 7
6 3 13 -5 8 -3 8 9 -2 9 -7 28 -11 42 -9 14 3 25 2 25 -1 0 -3 36 -6 80 -5 44
0 80 -4 80 -9 0 -5 6 -4 13 2 8 6 17 7 21 3 9 -8 102 -13 221 -11 136 2 160 4
173 12 6 5 12 4 12 -1 0 -9 67 -8 77 2 6 6 2 7 -77 12 -75 4 -78 7 -15 13 58
6 129 -5 120 -18 -2 -4 6 -8 17 -8 20 -2 20 -1 2 13 -18 14 -16 15 16 9 65
-12 84 -16 91 -20 4 -3 9 2 13 10 6 17 46 21 46 4 0 -5 -4 -8 -8 -5 -4 2 -14
0 -22 -6 -12 -8 -12 -9 3 -4 10 3 17 0 17 -7 0 -6 7 -1 16 11 15 22 35 22 33
-1 0 -9 -2 -8 -6 1 -5 13 -23 7 -23 -9 0 -17 29 -9 40 11 7 13 16 18 23 13 15
-10 347 -11 347 -1 0 4 6 5 13 3 21 -8 117 -11 117 -3 0 4 17 7 38 8 58 1 72
3 72 9 0 4 15 7 33 7 68 3 212 15 216 20 2 2 -16 4 -40 4 l-44 0 -43 488 c-24
268 -45 499 -48 515 l-6 27 2591 0 2591 0 0 -24 c0 -13 -29 -350 -65 -749 -36
-398 -65 -735 -64 -748 0 -13 -2 -37 -5 -52 -5 -22 -4 -27 6 -21 10 6 10 4 2
-7 -17 -22 -24 -85 -11 -99 9 -10 9 -11 0 -6 -8 4 -13 1 -13 -8 0 -8 -22 -264
-50 -568 -170 -1892 -230 -2579 -226 -2599 2 -13 -1 -33 -7 -44 -9 -19 -9 -19
9 -4 26 22 45 32 42 22 -2 -4 1 -9 6 -10 5 -1 13 -7 18 -15 6 -9 7 -6 3 9 -4
16 0 25 15 33 26 14 54 5 46 -15 -3 -8 -1 -17 4 -20 6 -4 10 2 10 12 0 12 8
19 23 20 12 0 16 -1 10 -4 -7 -3 -13 -14 -13 -26 1 -20 2 -20 11 -4 6 9 15 15
20 11 5 -3 18 0 27 7 14 11 15 11 5 -1 -10 -11 -9 -16 5 -26 22 -17 62 -18 62
-2 0 9 3 9 12 0 7 -7 17 -12 23 -12 5 0 4 4 -4 9 -9 6 0 10 28 13 26 2 41 -1
41 -8 0 -6 7 -11 15 -11 18 0 20 13 3 20 -10 4 -10 6 0 6 7 1 15 -6 18 -14 4
-8 10 -15 16 -15 5 0 6 6 2 13 -6 9 -4 9 7 -1 19 -17 26 -15 33 11 6 20 7 20
16 5 6 -9 19 -15 30 -13 11 2 20 0 20 -4 0 -12 39 -21 57 -14 8 3 12 12 9 19
-3 7 -1 16 4 19 6 4 10 12 10 18 0 9 -2 9 -8 1 -4 -6 -18 -14 -32 -18 -14 -4
-20 -4 -14 1 6 4 10 16 9 25 -2 10 5 20 16 23 10 4 19 10 19 15 0 10 28 3 48
-13 9 -7 9 -13 1 -23 -9 -11 -6 -18 12 -34 27 -22 81 -28 74 -7 -3 6 9 27 25
46 17 18 30 30 30 25 0 -5 5 -2 10 6 7 10 10 11 10 2 0 -7 -7 -15 -15 -18 -9
-4 -21 -16 -27 -28 -10 -18 -9 -19 4 -8 24 20 77 22 88 3 8 -13 9 -14 10 -1 0
13 1 13 10 0 9 -13 10 -13 10 0 0 13 1 13 10 0 7 -11 10 -11 10 -2 0 7 5 10
12 6 6 -4 8 -3 5 3 -4 6 -20 9 -37 8 -31 -3 -41 9 -15 18 8 4 17 2 20 -4 4 -5
11 -7 16 -3 19 11 69 13 75 2 4 -6 3 -8 -4 -4 -6 3 -13 2 -17 -4 -4 -6 -11 -7
-17 -4 -7 4 -8 2 -4 -5 6 -9 11 -9 22 0 8 6 14 8 14 3 0 -4 5 -3 11 3 6 6 18
9 27 5 11 -4 14 -1 9 11 -5 15 -3 16 12 7 11 -5 21 -15 24 -22 4 -10 7 -11 18
0 17 16 53 16 43 0 -4 -7 -3 -10 1 -5 5 4 17 -1 28 -10 11 -10 17 -13 13 -6
-7 13 27 37 38 25 4 -3 4 2 0 13 -7 18 -6 18 9 6 14 -11 20 -11 32 -1 12 10
15 10 15 -4 0 -9 5 -16 10 -16 6 0 9 5 8 11 -2 6 3 14 11 17 10 3 12 0 8 -12
-4 -9 -3 -15 2 -11 5 3 12 -1 14 -7 3 -7 6 1 7 17 1 17 4 24 7 18 2 -7 9 -13
14 -13 6 0 8 4 5 9 -3 5 1 12 10 15 8 3 12 2 9 -4 -3 -6 -2 -10 4 -10 6 0 8
-8 5 -17 -3 -10 2 -5 11 10 13 23 35 30 35 11 0 -3 -4 -3 -8 0 -4 2 -9 -5 -9
-17 -2 -20 -1 -20 8 -4 6 9 14 15 20 12 5 -3 6 0 3 8 -3 8 0 18 6 22 6 3 9 1
8 -6 -4 -16 31 -18 51 -4 11 7 13 7 7 -2 -4 -8 -1 -13 8 -13 9 0 13 6 10 14
-3 8 0 17 7 22 8 5 10 3 4 -6 -6 -10 -1 -11 21 -6 20 5 25 4 14 -3 -8 -6 -11
-13 -8 -17 4 -3 18 6 32 21 20 21 26 24 26 11 0 -19 11 -21 28 -4 9 9 12 9 12
-1 0 -10 3 -11 14 -2 10 8 16 9 21 1 3 -5 11 -10 16 -10 6 0 7 5 4 10 -3 6 -1
10 4 10 6 0 11 -6 11 -12 0 -9 4 -8 10 2 8 12 11 13 19 1 7 -11 9 -11 14 0 4
12 7 11 16 -1 9 -13 11 -13 11 2 0 19 28 14 42 -6 5 -7 8 -6 8 3 0 8 6 11 16
7 14 -6 15 -4 4 9 -11 13 -15 13 -21 3 -5 -7 -9 -9 -9 -4 0 5 8 18 18 29 12
15 13 18 2 12 -8 -5 -26 -8 -39 -6 -15 2 -21 -1 -17 -8 4 -6 3 -11 -3 -11 -5
0 -13 5 -16 10 -3 6 -1 10 4 10 6 0 11 6 11 14 0 20 17 29 26 15 5 -8 3 -9 -6
-4 -8 5 -11 4 -7 -3 12 -18 46 -2 42 19 -2 11 0 17 6 14 5 -4 6 -11 3 -17 -4
-6 -1 -8 7 -6 8 3 25 -4 39 -16 17 -14 20 -15 11 -3 -16 21 -7 35 12 19 10 -8
17 -8 24 -1 15 15 33 2 26 -19 -4 -13 -2 -13 10 3 8 11 13 23 11 27 -3 4 9 5
26 3 17 -2 28 0 25 6 -4 5 8 9 25 9 22 0 29 4 24 13 -4 6 -4 9 1 5 4 -4 15 -2
23 5 13 10 14 9 3 -10 -10 -20 -9 -22 6 -17 10 3 25 8 33 10 13 5 13 6 0 15
-12 9 -12 10 3 5 11 -3 20 0 23 9 4 8 11 12 18 8 14 -10 56 -11 50 -2 -2 4 0
10 6 14 5 3 10 1 10 -4 0 -6 4 -11 10 -11 5 0 6 7 3 17 -5 12 -3 14 7 8 9 -6
11 -4 5 5 -6 10 -4 12 9 7 10 -4 15 -3 11 3 -3 6 -18 7 -33 4 -21 -4 -24 -3
-12 5 24 17 50 13 59 -11 5 -14 10 -17 15 -10 4 7 4 12 0 12 -4 0 1 9 12 21
12 13 14 19 5 17 -7 -2 -16 3 -18 10 -3 7 1 10 11 6 11 -4 14 0 12 18 -1 13
-6 30 -11 38 -7 12 -6 13 7 3 8 -7 18 -10 21 -6 4 3 7 1 7 -6 0 -7 5 -9 10 -6
6 3 10 16 9 28 0 21 -1 21 -9 2 -7 -19 -8 -19 -15 -2 -6 15 -10 16 -16 5 -7
-10 -9 -9 -9 4 0 9 -4 19 -8 22 -4 3 -7 -8 -6 -25 1 -16 -3 -29 -9 -29 -7 0
-7 -4 2 -9 9 -6 4 -8 -18 -7 -17 0 -31 5 -31 9 0 5 7 6 16 3 12 -4 15 -2 10 9
-3 8 0 15 5 15 6 0 9 9 6 19 -6 25 20 36 41 19 12 -10 14 -10 8 0 -9 16 6 16
23 -1 9 -8 12 -8 7 0 -3 6 0 14 6 16 9 4 8 6 -3 6 -20 1 -21 79 -1 99 6 7 12
20 12 28 0 18 19 18 26 0 6 -17 37 -15 40 3 2 7 0 7 -3 1 -3 -7 -13 -6 -29 5
-14 9 -30 13 -36 9 -6 -4 -9 -1 -6 7 3 8 11 13 17 11 7 -1 10 2 6 8 -3 5 -13
10 -21 10 -8 0 -13 -4 -10 -8 2 -4 1 -14 -5 -22 -6 -10 -9 -11 -9 -2 0 6 -5
12 -11 12 -5 0 -7 -6 -3 -13 5 -8 4 -9 -4 -2 -17 16 -3 57 17 50 13 -5 14 -4
3 7 -11 11 -16 9 -32 -12 -13 -16 -22 -21 -27 -14 -5 6 -16 10 -26 8 -9 -1
-15 2 -11 7 3 5 9 7 14 4 15 -9 22 15 10 30 -7 8 -11 15 -9 16 32 6 42 5 54
-8 8 -8 15 -12 15 -8 0 3 10 1 21 -6 12 -6 19 -7 15 -1 -3 5 0 12 8 15 8 3 17
-2 21 -11 6 -15 8 -15 21 2 8 11 14 14 14 8 0 -7 5 -12 11 -12 5 0 8 4 5 9 -4
5 -1 11 6 13 9 3 9 6 0 12 -7 4 -12 2 -12 -4 0 -6 -5 -8 -10 -5 -6 3 -13 -1
-16 -10 -10 -24 -22 0 -16 31 2 14 9 21 16 17 6 -3 7 -2 3 3 -8 9 -12 10 -39
13 -16 1 -2 14 20 17 9 2 20 -2 25 -9 6 -8 7 -5 3 7 -5 14 -2 17 9 12 9 -3 18
1 21 9 4 8 10 12 16 9 5 -3 4 -13 -4 -22 -11 -15 -11 -15 3 -5 9 7 19 10 22 6
4 -3 7 -1 7 5 0 7 -5 12 -12 12 -6 0 -8 3 -5 7 12 11 -30 33 -50 26 -13 -4
-10 3 11 25 16 17 34 29 39 25 6 -4 7 -1 2 6 -5 9 -14 6 -33 -11 -15 -13 -30
-27 -33 -32 -4 -5 -15 -6 -25 -2 -16 6 -14 9 14 21 32 14 46 30 15 18 -10 -4
-14 -2 -10 4 3 5 0 10 -7 10 -8 0 -12 -7 -8 -15 3 -10 1 -13 -6 -8 -7 4 -12 2
-12 -3 0 -6 -5 -11 -11 -11 -6 0 -8 7 -5 15 5 13 1 12 -19 -2 -25 -19 -32 -33
-15 -33 6 0 10 5 10 10 0 6 5 10 11 10 5 0 8 -4 5 -9 -3 -5 2 -8 12 -7 10 0
16 -5 14 -13 -2 -8 3 -11 11 -8 8 3 20 1 28 -3 8 -6 16 -4 21 3 4 6 10 8 15 4
12 -12 -19 -27 -37 -17 -9 5 -23 4 -34 -2 -10 -6 -16 -6 -13 -1 3 5 -3 14 -14
21 -11 7 -19 8 -19 2 0 -5 -7 -7 -16 -3 -10 4 -14 13 -10 28 4 14 0 28 -10 36
-14 12 -14 14 3 20 15 6 15 8 2 8 -9 1 -19 7 -22 15 -8 20 31 28 42 9 6 -12 8
-9 8 12 0 15 -2 23 -6 19 -9 -13 -31 -16 -31 -5 0 12 37 24 49 16 5 -3 12 -1
15 4 3 5 -4 11 -16 14 -13 4 -26 1 -30 -6 -5 -9 -10 -9 -20 2 -7 8 -8 11 -2 8
7 -4 15 0 18 9 4 10 12 14 24 9 14 -5 15 -4 5 6 -10 10 -16 10 -24 2 -6 -6
-18 -9 -25 -6 -8 3 -14 -1 -14 -10 0 -9 -4 -19 -10 -22 -7 -4 -6 3 0 20 l10
27 -70 -4 c-62 -3 -70 -2 -70 14 0 10 -5 18 -11 18 -5 0 -8 -4 -4 -9 3 -5 0
-13 -6 -17 -8 -4 -9 -3 -5 5 5 8 1 11 -16 8 -12 -2 -17 -2 -10 0 7 3 10 9 7
14 -4 5 -1 9 6 9 8 0 9 3 0 13 -6 8 -7 17 -3 22 4 4 -4 4 -17 0 -16 -5 -21 -4
-17 4 4 7 1 9 -8 5 -8 -3 -25 2 -38 10 -14 9 -28 13 -33 9 -4 -5 -6 -1 -3 7 3
8 -2 21 -11 28 -14 11 -12 11 7 2 13 -6 28 -9 35 -6 9 3 9 5 0 5 -7 1 -12 11
-12 24 1 16 2 18 6 5 2 -10 11 -18 20 -18 13 0 13 2 2 17 -12 15 -12 16 7 11
18 -4 21 -1 22 23 0 16 -3 31 -9 34 -5 3 -6 0 -3 -8 3 -8 1 -18 -4 -21 -5 -3
-9 5 -8 17 1 14 7 22 19 21 9 -1 14 2 11 7 -3 5 -13 9 -22 10 -14 0 -13 2 3 8
17 7 16 9 -12 15 -34 8 -43 21 -20 29 6 2 4 3 -5 2 -10 -2 -18 1 -18 7 0 5 -4
6 -10 3 -5 -3 -10 -1 -10 5 0 6 -5 8 -10 5 -6 -3 -13 0 -16 8 -5 15 -34 19
-31 4 1 -5 -4 -12 -11 -14 -8 -3 -10 1 -6 11 3 9 1 16 -4 16 -6 0 -9 -9 -7
-20 2 -11 0 -20 -6 -20 -5 0 -9 5 -9 10 0 6 -5 10 -11 10 -6 0 -8 -9 -4 -20 3
-11 3 -20 -2 -20 -5 0 -9 10 -10 21 -3 31 -10 34 -35 13 l-23 -19 19 22 c10
12 16 28 13 35 -4 10 -6 10 -6 1 -1 -13 -31 -19 -31 -6 0 3 8 16 17 27 14 16
11 15 -9 -3 -15 -13 -26 -28 -25 -34 1 -5 -5 -12 -13 -14 -10 -3 -11 -2 -3 4
8 6 8 13 -3 27 -7 11 -17 16 -21 12 -4 -3 -13 4 -20 16 -7 13 -12 17 -13 10 0
-10 -4 -9 -16 2 -8 9 -20 13 -26 10 -7 -4 -8 -2 -4 4 3 6 15 9 26 7 11 -2 25
4 31 13 10 16 10 16 5 0 -3 -10 -1 -20 3 -23 12 -7 22 21 15 40 -4 8 -1 15 6
15 6 0 8 5 5 10 -5 8 -11 7 -21 -1 -10 -8 -14 -8 -14 0 0 6 -5 11 -11 11 -5 0
-8 -4 -5 -9 14 -22 -24 -17 -38 5 -9 13 -12 24 -7 24 5 0 13 -4 16 -10 10 -16
28 -12 21 5 -5 13 -2 13 19 -1 15 -10 25 -12 25 -5 0 6 -5 11 -12 11 -6 0 -8
3 -5 7 4 3 16 -2 26 -11 19 -17 19 -17 14 3 -3 13 -1 21 6 21 7 0 10 -4 7 -9
-3 -5 8 -11 24 -13 16 -3 28 -2 25 0 -3 3 1 12 8 20 10 13 9 14 -10 4 -17 -10
-21 -9 -19 3 3 19 5 20 35 12 14 -3 20 -10 16 -17 -6 -9 -2 -9 12 -1 14 7 24
7 34 -2 7 -7 5 -2 -5 10 -15 19 -16 25 -6 38 10 12 9 16 -4 21 -9 4 -20 4 -23
0 -4 -3 1 -6 11 -6 9 0 14 -5 11 -10 -4 -6 -11 -7 -17 -4 -6 4 -6 -2 1 -15 8
-14 8 -21 1 -21 -5 0 -10 5 -10 10 0 6 -6 10 -14 10 -17 0 -31 18 -21 28 3 3
10 0 16 -8 7 -12 8 -10 6 7 -2 12 -7 26 -12 30 -4 5 -6 3 -2 -2 8 -15 -27 -35
-43 -25 -11 7 -11 12 -2 23 10 11 9 17 -2 26 -11 9 -14 8 -12 -5 0 -11 -7 -18
-20 -19 -16 -1 -20 3 -17 16 4 14 0 16 -15 12 -11 -2 -29 0 -41 6 -16 9 -21 9
-21 0 0 -7 -2 -10 -5 -7 -3 3 -1 16 4 29 6 14 10 17 10 9 1 -10 12 -16 34 -18
30 -2 31 -1 13 13 -10 8 -23 12 -27 9 -5 -3 -9 -1 -9 4 0 6 7 13 16 16 8 3 13
2 11 -2 -3 -4 9 -18 26 -32 17 -14 28 -20 24 -13 -4 7 0 13 10 16 16 3 16 5
-2 11 -11 5 -26 10 -32 12 -16 4 -17 24 -2 24 5 0 7 -5 3 -12 -4 -7 -3 -8 5
-4 6 4 9 12 5 17 -3 5 0 16 6 24 7 8 9 15 5 15 -4 0 -2 6 4 14 10 11 8 17 -6
26 -16 9 -15 10 6 4 18 -5 22 -3 16 7 -6 11 -5 12 6 2 20 -19 27 -16 22 11 -3
13 -1 26 5 30 5 3 7 -6 4 -21 -3 -18 -1 -24 7 -19 6 4 9 12 6 17 -4 5 1 12 10
15 14 6 14 8 -2 20 -17 14 -17 14 1 12 10 -2 21 2 23 9 5 15 -33 9 -53 -8 -8
-6 -14 -8 -14 -4 0 4 -6 3 -12 -3 -9 -7 -17 -6 -27 5 -11 12 -11 14 0 12 29
-3 40 1 33 14 -5 8 -2 7 9 -2 15 -12 17 -12 12 1 -9 22 23 31 43 12 10 -11 17
-13 20 -5 2 7 13 6 33 -4 18 -10 29 -11 29 -5 0 6 5 8 10 5 6 -4 8 -10 6 -14
-3 -4 8 -7 25 -7 16 0 29 4 29 8 0 5 -10 6 -22 2 -20 -6 -21 -5 -9 9 15 19 43
9 60 -21 6 -9 11 -12 11 -5 0 17 -49 53 -66 46 -8 -3 -14 -10 -14 -16 0 -8 -3
-8 -11 0 -6 6 -19 9 -28 6 -13 -4 -13 -2 2 7 9 6 21 9 26 6 4 -3 16 1 27 8 10
8 24 11 31 9 19 -7 12 20 -7 29 -12 5 -11 7 3 7 11 1 15 6 11 12 -4 7 1 7 16
-1 27 -15 37 -6 19 17 -13 17 -13 17 7 0 23 -19 36 -14 27 11 -4 10 -3 14 1
10 4 -3 9 -14 11 -25 1 -10 8 -17 14 -16 6 2 11 -2 11 -8 0 -6 -7 -9 -15 -5
-27 10 -15 -3 18 -20 20 -10 27 -11 20 -3 -18 18 -16 32 2 25 8 -3 15 -1 15 4
0 6 -6 10 -14 10 -8 0 -18 5 -22 11 -5 9 1 10 22 5 21 -6 26 -4 18 4 -6 6 -23
12 -38 14 -14 1 -29 5 -32 9 -3 3 -13 3 -21 0 -11 -4 -14 -2 -11 8 3 8 11 13
17 12 6 -2 11 2 11 8 0 5 5 7 12 3 7 -4 8 -3 4 5 -8 12 -13 10 -60 -23 -16
-11 -26 -15 -22 -8 4 7 2 12 -6 12 -9 0 -10 3 -2 8 6 4 10 15 9 24 -2 10 2 16
8 15 7 -1 11 3 10 10 -2 7 3 10 10 7 14 -5 59 41 50 50 -4 3 -1 6 5 6 7 0 12
-4 12 -10 0 -5 5 -10 11 -10 5 0 8 4 5 8 -2 4 5 9 17 9 15 2 18 0 9 -6 -11 -7
-11 -9 2 -14 9 -4 15 -3 15 1 -3 19 2 29 16 30 8 1 22 3 30 4 26 3 23 23 -4
25 -14 1 -35 3 -46 6 -11 2 -26 -3 -33 -12 -8 -9 -10 -10 -7 -3 5 10 0 13 -20
10 -21 -2 -29 2 -31 15 -4 26 -7 28 -43 29 -18 1 -28 5 -25 12 3 6 -5 0 -17
-14 -17 -19 -21 -20 -16 -6 5 13 3 17 -6 13 -8 -3 -14 1 -15 9 -1 8 -3 20 -4
27 -1 8 -6 14 -12 14 -6 0 -18 2 -26 4 -8 2 -14 -1 -13 -8 2 -7 -4 -10 -12 -7
-20 8 -19 29 3 45 14 11 15 11 5 -1 -7 -8 -13 -18 -13 -23 0 -4 6 -5 13 0 6 4
21 9 31 10 11 2 22 6 25 10 3 3 -4 3 -16 0 -14 -3 -23 0 -24 6 0 7 -2 20 -4
29 -2 10 2 16 8 15 7 -1 11 3 10 9 -1 6 5 11 13 11 13 0 13 -2 0 -15 -11 -11
-11 -18 -3 -27 9 -9 16 -8 31 6 10 10 23 16 27 13 4 -2 10 0 13 5 4 5 14 8 24
7 9 -2 19 0 22 4 3 5 16 10 30 11 36 5 42 31 12 46 -30 16 -35 16 -27 2 4 -6
-2 -5 -14 3 -12 7 -21 18 -21 25 0 6 -5 15 -12 19 -8 5 -9 2 -5 -10 6 -14 3
-16 -16 -10 -12 4 -32 8 -44 8 -12 1 -24 4 -27 9 -3 4 -3 5 0 3 3 -3 16 -1 29
4 15 6 27 4 35 -3 10 -9 11 -9 8 3 -3 9 -16 15 -31 14 -19 -1 -24 3 -20 15 4
11 -4 8 -23 -9 -15 -14 -23 -18 -16 -8 8 10 9 19 3 22 -5 3 -12 1 -14 -4 -3
-6 -4 -5 -3 2 2 7 12 13 24 13 11 0 26 5 32 11 8 8 4 11 -17 12 -22 0 -85 7
-113 11 -3 1 1 5 8 10 11 7 11 9 -2 14 -15 6 -21 -4 -17 -27 1 -5 -4 -4 -12 2
-8 7 -17 9 -20 5 -4 -3 -7 -1 -7 6 0 7 6 11 13 8 8 -3 14 1 14 9 0 16 -27 15
-40 -1 -5 -6 -7 -1 -4 12 3 13 -1 24 -10 27 -9 4 -13 0 -11 -11 2 -9 -4 -18
-12 -20 -9 -3 -11 -1 -5 4 6 4 10 15 10 23 0 8 8 14 18 14 9 -1 17 2 17 7 0 6
8 5 19 -1 15 -7 23 -6 35 5 16 16 31 20 22 7 -3 -5 8 -8 24 -8 16 0 26 4 23 9
-3 5 5 7 17 5 13 -2 24 3 26 10 1 7 0 8 -3 2 -3 -7 -11 -7 -24 0 -10 6 -19 7
-19 2 0 -5 -7 -9 -15 -9 -8 0 -15 5 -15 10 0 6 -3 7 -7 4 -3 -4 -17 0 -30 8
-23 15 -32 8 -13 -11 6 -6 5 -15 -1 -24 -9 -13 -10 -12 -5 2 6 19 -9 34 -19
18 -3 -5 -10 -10 -16 -10 -5 0 1 10 14 23 12 12 27 22 32 22 6 0 9 13 8 29 -2
20 1 26 12 22 8 -3 17 -1 20 4 3 5 12 7 19 4 8 -3 17 0 21 7 5 7 3 10 -6 7 -8
-3 -22 2 -32 11 -18 15 -20 14 -38 -8 -10 -13 -19 -20 -19 -15 0 4 10 18 22
31 l21 23 -21 0 c-11 0 -24 4 -27 10 -3 6 1 7 9 4 9 -3 16 -1 16 5 0 6 -11 11
-25 11 -19 0 -23 -4 -19 -17 4 -14 3 -15 -4 -5 -5 8 -12 13 -16 13 -16 -2 -18
0 -8 12 9 11 4 13 -24 11 -19 -2 -33 0 -30 4 2 4 -3 14 -12 22 -14 13 -15 12
-9 -3 8 -21 -6 -22 -27 -2 -9 9 -17 11 -21 5 -4 -7 -12 -7 -24 0 -11 5 -33 11
-50 12 -17 1 -31 6 -31 10 0 4 -12 8 -27 8 -22 0 -25 2 -13 10 8 5 11 10 5 10
-5 0 -3 5 5 10 13 8 12 10 -2 10 -10 0 -18 -4 -18 -10 0 -5 -6 -7 -14 -4 -7 3
-16 -2 -20 -12 -5 -13 -9 -14 -21 -4 -8 7 -15 9 -15 5 0 -5 -9 0 -20 10 -12
10 -20 13 -20 6 0 -8 -5 -8 -20 1 -11 7 -18 20 -15 28 3 10 0 9 -9 -3 -10 -13
-15 -15 -18 -5 -4 11 -8 10 -21 -1 -15 -12 -17 -11 -17 3 0 15 -2 15 -27 -1
-15 -10 -24 -12 -20 -5 5 6 4 12 -2 12 -5 0 -12 -4 -16 -10 -8 -13 -36 0 -29
14 3 6 -2 2 -10 -8 -12 -15 -16 -16 -16 -5 0 12 -2 12 -10 -1 -8 -13 -10 -13
-10 2 0 9 8 22 18 27 13 8 9 9 -17 4 -23 -4 -32 -3 -27 5 3 6 1 14 -5 18 -8 5
-9 3 -4 -6 6 -10 3 -11 -16 -5 -13 4 -36 8 -51 8 -15 1 -24 5 -22 9 3 4 0 8
-6 8 -6 0 -8 5 -4 11 4 8 9 8 17 0 15 -15 30 -14 25 1 -6 17 -58 18 -58 1 0
-8 -5 -11 -10 -8 -6 4 -7 11 -4 17 4 7 2 8 -4 4 -6 -4 -17 2 -24 14 -7 11 -17
20 -22 20 -6 0 -5 -5 2 -12 17 -17 15 -28 -4 -28 -8 0 -13 4 -9 9 3 5 1 12 -5
16 -5 3 -10 1 -10 -6 0 -7 -3 -9 -7 -6 -3 4 -13 1 -21 -6 -13 -9 -14 -9 -8 1
5 8 0 12 -14 12 -14 0 -19 -4 -15 -12 4 -7 -2 -4 -12 8 -10 12 -26 24 -36 27
-17 6 -17 8 -1 32 9 14 13 25 8 24 -5 -1 -13 0 -19 1 -25 6 -41 4 -47 -5 -5
-6 -8 -5 -8 3 0 7 -4 11 -8 8 -20 -12 -28 10 -10 29 11 11 19 16 18 10 -5 -23
1 -33 18 -30 9 2 21 4 25 4 5 1 5 6 2 11 -3 6 -1 10 5 10 6 0 10 -6 8 -12 -2
-7 2 -14 7 -15 6 -2 10 1 10 6 0 5 4 13 9 18 5 4 6 3 2 -4 -4 -8 1 -11 14 -10
11 1 20 4 20 7 0 9 -20 35 -20 26 0 -5 -6 -3 -14 3 -11 9 -15 9 -19 -1 -4 -9
-6 -8 -6 3 -1 23 47 20 55 -3 3 -10 9 -18 14 -18 27 0 59 -21 54 -35 -3 -8
-10 -12 -15 -9 -5 3 -9 0 -9 -6 0 -7 7 -10 15 -7 8 4 17 2 20 -4 4 -5 11 -7
16 -3 5 3 7 10 3 15 -3 5 -10 7 -15 4 -15 -10 -10 5 11 32 15 20 17 29 9 39
-9 11 -8 14 2 15 8 1 24 3 37 4 12 1 25 -1 27 -6 3 -4 -6 -6 -20 -3 -19 3 -25
0 -25 -13 0 -11 3 -14 8 -8 6 9 15 11 38 6 4 0 0 -9 -7 -18 -12 -16 -12 -17 2
-6 9 7 20 9 24 5 5 -4 5 -1 1 6 -5 7 -1 12 10 12 11 0 15 -6 11 -20 -3 -12 -1
-18 5 -14 5 3 7 15 5 26 -4 12 -1 18 6 15 7 -2 19 2 28 9 13 12 15 10 15 -12
0 -16 -4 -23 -14 -19 -7 2 -11 1 -7 -4 3 -5 -1 -12 -7 -15 -7 -3 -2 -3 12 0
24 5 24 4 6 -10 -11 -9 -17 -18 -14 -21 3 -3 13 1 22 10 9 9 22 13 28 9 7 -4
10 -4 6 1 -4 4 3 16 15 27 l22 20 -25 -16 c-30 -20 -37 -20 -37 -1 0 13 10 19
28 17 4 -1 4 8 1 20 -5 21 -6 21 -13 2 -7 -16 -8 -17 -8 -1 -1 9 -8 17 -16 17
-7 0 -19 -8 -24 -17 -6 -10 -11 -13 -11 -8 0 6 -9 11 -20 12 -11 1 -18 -2 -15
-8 4 -5 1 -9 -4 -9 -6 0 -11 4 -11 10 0 12 35 31 43 23 4 -3 10 2 13 11 5 13
9 14 14 6 10 -16 93 -21 102 -6 5 8 8 7 8 -2 0 -7 5 -10 10 -7 6 4 8 10 6 14
-3 3 4 7 15 7 17 0 18 -2 6 -11 -7 -5 -12 -16 -9 -23 4 -14 -19 -12 -30 3 -5
6 -8 4 -8 -5 0 -13 -1 -13 -10 0 -7 11 -10 11 -10 2 0 -7 -6 -10 -12 -7 -7 4
-4 -1 7 -10 11 -9 29 -21 40 -26 18 -9 19 -9 3 4 -24 19 -23 30 2 17 11 -6 26
-8 33 -4 9 6 9 4 -1 -8 -10 -13 -9 -20 7 -39 17 -21 23 -22 40 -12 22 14 37 2
25 -19 -4 -7 2 -5 14 6 19 16 22 36 6 36 -3 0 -2 -4 1 -10 3 -5 1 -10 -6 -10
-7 0 -9 8 -6 21 5 20 5 20 -13 4 -17 -15 -19 -15 -29 2 -6 10 -11 13 -11 7 0
-5 5 -15 12 -22 9 -9 9 -12 0 -12 -16 0 -32 34 -23 49 6 10 12 9 25 -4 9 -9
16 -12 16 -7 0 5 -3 12 -7 16 -8 8 -9 11 -12 44 -2 14 -4 13 -11 -5 -5 -13
-14 -23 -20 -23 -13 0 -13 27 1 35 6 4 8 13 5 20 -5 14 20 29 35 19 5 -3 9 1
9 8 0 9 3 9 8 2 18 -26 74 -21 57 5 -7 13 -95 11 -95 -2 0 -5 -7 -2 -15 7 -8
8 -15 18 -15 22 0 3 7 1 15 -6 11 -9 15 -10 15 -1 0 7 8 10 18 7 9 -3 38 -6
63 -7 30 -2 46 -7 46 -16 0 -7 -3 -11 -5 -8 -3 3 -11 -4 -19 -15 -11 -15 -21
-18 -46 -13 -18 3 -28 2 -24 -3 4 -5 22 -9 38 -9 17 0 34 -7 38 -14 5 -7 13
-11 19 -7 6 3 13 0 15 -6 4 -10 6 -10 6 0 1 8 6 10 14 6 9 -6 9 -4 -1 8 -8 10
-9 19 -4 22 6 3 13 -1 16 -10 4 -9 9 -14 13 -11 3 4 11 -1 18 -9 9 -13 16 -14
32 -5 12 6 23 8 26 3 2 -4 3 -2 1 4 -1 6 2 16 8 22 6 6 6 12 -3 17 -8 6 -10 4
-4 -5 5 -9 4 -11 -4 -6 -6 4 -10 4 -9 -1 3 -9 -5 -13 -31 -13 -20 0 -36 46
-19 56 4 3 8 2 7 -3 -4 -23 3 -40 16 -40 9 0 14 6 11 13 -3 9 1 11 11 7 12 -5
14 -3 8 7 -6 10 -4 11 6 4 8 -4 20 -9 28 -11 7 -1 19 -7 25 -13 8 -8 7 -10 -5
-5 -10 4 -19 0 -23 -11 -6 -15 -4 -15 10 -3 10 8 19 13 21 12 11 -9 12 0 2 20
-11 20 -11 21 4 8 11 -8 17 -9 17 -3 0 6 7 9 15 6 8 -4 12 -10 9 -16 -3 -5 4
-4 15 4 18 11 23 11 31 -2 7 -11 10 -11 10 -2 0 8 5 10 12 5 17 -10 49 -10 71
0 9 4 25 4 34 -2 10 -5 26 -5 40 0 14 5 23 5 23 -1 0 -6 -9 -10 -20 -10 -14 0
-18 -5 -13 -17 4 -9 8 -12 10 -7 2 6 18 9 36 8 17 -1 37 2 44 8 7 5 18 6 24 2
7 -4 9 -3 6 3 -4 6 1 17 11 24 15 12 16 12 4 -2 -11 -14 -9 -17 12 -21 14 -3
23 -1 20 3 -3 5 -2 9 3 10 4 0 18 2 30 5 12 2 24 0 27 -5 3 -4 -5 -7 -17 -6
-16 2 -23 -2 -23 -16 0 -11 4 -19 8 -19 4 0 8 7 8 15 0 8 5 15 11 15 6 0 8 -8
5 -17 -5 -16 -5 -16 8 0 17 22 26 23 37 5 8 -11 11 -11 18 1 5 8 14 10 22 6 8
-5 11 -5 7 -1 -11 12 15 35 28 25 7 -5 11 -3 11 6 0 8 -4 12 -8 10 -4 -3 -9 1
-12 8 -4 10 2 13 18 9 12 -2 26 2 30 8 5 9 1 10 -14 5 -13 -4 -21 -2 -21 5 0
6 4 9 9 5 5 -3 12 -1 16 5 4 7 13 6 27 -1 14 -8 18 -8 14 0 -5 7 3 10 24 7 17
-2 33 0 36 5 2 4 12 6 22 3 14 -5 15 -4 2 5 -13 9 -11 12 8 17 31 9 25 39 -7
39 -14 0 -26 -7 -28 -15 -4 -13 -3 -13 6 0 9 13 11 13 11 -1 0 -9 -7 -20 -16
-23 -9 -3 -12 -11 -8 -18 4 -7 -1 -5 -11 4 -15 14 -16 20 -6 32 9 11 9 16 0
22 -8 4 -9 3 -5 -4 4 -7 1 -12 -9 -12 -10 0 -13 5 -9 13 5 8 2 7 -9 -2 -20
-16 -27 -12 -30 16 0 11 -7 20 -14 20 -6 0 -10 -4 -8 -8 3 -4 -4 -5 -15 -2
-21 5 -28 33 -9 33 5 0 7 -5 3 -11 -3 -6 5 -4 19 6 17 11 27 13 32 5 5 -8 11
-8 21 1 8 6 25 9 40 6 16 -3 24 0 21 7 -3 7 4 12 14 12 11 0 19 -4 19 -8 0 -5
8 -4 19 1 10 6 21 7 25 4 3 -3 6 -2 6 4 0 6 9 9 20 6 12 -3 20 0 20 6 0 7 -4
10 -9 6 -5 -3 -15 0 -23 7 -18 18 -60 21 -69 6 -5 -8 -11 -9 -21 -1 -7 6 -20
11 -28 11 -33 2 -51 9 -73 30 -13 12 -27 19 -32 15 -4 -5 -5 -2 -1 5 4 7 2 12
-5 12 -7 0 -9 3 -6 6 4 4 13 1 22 -6 12 -10 15 -9 15 6 0 16 2 16 10 4 6 -9 5
-17 -1 -21 -7 -4 -4 -9 5 -12 9 -4 15 -1 13 6 -1 8 11 12 34 12 26 0 35 4 31
13 -2 7 -11 11 -19 8 -8 -3 -11 -2 -8 3 3 5 0 13 -6 17 -6 3 -15 0 -20 -7 -6
-11 -9 -10 -15 4 -4 10 -13 16 -21 13 -8 -3 -11 -1 -8 4 9 14 -9 12 -24 -2
-11 -11 -11 -9 0 9 14 24 43 35 56 22 4 -4 15 -3 23 2 13 10 13 10 0 6 -10 -3
-16 2 -16 13 0 15 4 16 23 7 12 -5 20 -13 18 -17 -3 -4 1 -8 8 -7 43 1 57 -4
57 -23 0 -22 15 -27 26 -8 4 7 3 8 -4 4 -7 -4 -12 -1 -12 9 0 12 4 14 19 6 10
-6 21 -7 25 -4 11 11 55 9 49 -2 -2 -5 2 -3 9 7 9 10 19 13 28 9 9 -5 21 -1
30 8 21 24 23 48 4 55 -14 5 -15 4 -5 -8 7 -8 8 -17 3 -20 -6 -3 -13 2 -17 12
-6 16 -7 16 -21 -2 -8 -11 -14 -14 -14 -7 0 7 -5 9 -12 5 -8 -5 -9 -2 -4 12 4
10 4 15 0 11 -4 -4 -13 -2 -20 4 -21 17 1 51 29 45 12 -3 16 -3 10 0 -7 3 -13
10 -13 16 0 6 12 3 28 -6 l27 -17 -22 19 c-12 11 -20 21 -18 23 2 2 -13 5 -33
7 -43 3 -51 9 -58 48 -5 28 -4 28 10 9 l15 -20 1 20 c1 11 4 15 6 8 3 -7 1
-20 -5 -30 -8 -16 -6 -19 12 -20 12 0 17 1 10 4 -7 2 -9 11 -6 19 4 12 8 11
20 -6 20 -28 44 -9 39 31 -3 25 -1 27 15 18 31 -16 13 14 -19 32 -16 9 -29 23
-29 32 0 18 37 30 63 20 12 -4 15 -3 10 5 -5 9 0 9 18 2 22 -8 28 -6 38 10 17
26 48 26 48 0 0 -11 4 -20 10 -20 5 0 7 8 4 18 -5 14 -4 14 6 -2 10 -15 9 -20
-1 -27 -10 -6 -11 -9 -2 -9 7 0 12 -5 10 -11 -1 -6 5 -14 13 -16 9 -3 11 -1 5
4 -5 4 -10 23 -10 41 0 24 3 29 10 20 5 -7 19 -14 30 -15 19 -1 19 -1 2 12
-13 10 -15 14 -5 18 9 4 7 6 -4 7 -46 6 -58 8 -60 10 -3 2 -41 6 -85 9 -26 1
-42 39 -22 52 10 6 8 9 -9 9 -16 0 -21 -4 -16 -12 6 -9 3 -9 -9 1 -9 7 -24 11
-32 7 -9 -3 -18 1 -21 9 -4 8 -19 15 -34 15 -16 0 -31 4 -35 10 -3 5 -13 6
-23 3 -18 -7 -17 -5 12 17 13 10 17 10 12 3 -4 -7 -2 -13 3 -13 6 0 11 6 12
13 0 6 4 3 9 -8 8 -19 9 -19 9 3 1 12 5 22 10 22 6 0 8 -9 6 -20 -5 -27 1 -25
32 8 15 15 23 21 19 15 -6 -12 5 -18 27 -14 11 2 8 -14 -5 -28 -7 -8 2 -3 20
9 17 13 32 29 32 34 0 7 -4 6 -8 -1 -6 -9 -16 -7 -40 7 -18 11 -39 20 -47 20
-7 0 -16 4 -19 9 -11 18 56 5 70 -13 8 -11 17 -16 21 -12 5 4 -2 16 -14 26
-12 9 -19 21 -15 25 4 3 2 6 -3 5 -33 -7 -57 3 -74 30 -10 16 -21 27 -26 22
-4 -4 -2 3 4 16 13 25 23 30 14 6 -5 -14 -2 -14 22 2 19 13 30 15 32 7 2 -6
15 -9 29 -7 13 2 24 0 24 -5 0 -5 8 -11 19 -14 15 -3 17 0 13 17 -5 19 -4 20
13 6 11 -9 16 -10 11 -2 -10 17 4 15 28 -5 14 -12 17 -13 9 -3 -10 13 -8 18 8
28 24 15 25 31 2 27 -10 -1 -17 -7 -16 -12 1 -5 -7 -10 -18 -10 -10 -1 -19 3
-19 8 0 6 3 8 8 6 10 -7 32 19 24 28 -4 3 6 2 21 -4 26 -10 33 -5 28 23 -1 5
7 6 17 4 11 -3 19 0 19 8 0 7 -4 11 -9 8 -4 -3 -8 0 -8 5 0 6 -7 11 -15 11
-19 0 -19 10 1 38 15 21 9 28 -19 23 -5 -1 -6 3 -2 9 3 6 10 8 15 5 5 -3 19
-1 30 5 15 8 20 8 18 -2 -2 -6 3 -12 10 -13 7 0 17 -7 22 -15 5 -8 12 -11 16
-8 7 7 -45 57 -59 58 -5 0 -20 9 -34 20 -14 11 -39 20 -55 20 -16 0 -39 5 -50
11 -11 6 -39 13 -62 15 -89 8 -116 13 -135 23 -11 6 -28 11 -37 11 -16 0 -69
15 -234 64 -25 8 -65 19 -90 26 -25 7 -52 15 -60 18 -8 3 -17 6 -20 6 -18 4
-107 40 -115 47 -5 5 -14 9 -21 9 -6 0 -28 15 -49 34 -32 30 -93 57 -80 35 3
-4 -16 3 -42 17 -27 13 -53 24 -58 24 -6 0 -17 9 -25 20 -10 14 -26 20 -51 20
-21 0 -39 4 -41 9 -1 5 -12 11 -23 13 -11 1 -26 9 -33 16 -7 6 -18 12 -23 12
-6 0 -7 -6 -3 -12 4 -7 -2 -5 -13 5 -11 9 -22 15 -25 12 -3 -3 -11 1 -18 10
-7 8 -19 15 -26 15 -8 0 -14 5 -14 11 0 6 -6 9 -14 6 -7 -3 -17 -2 -22 3 -5 4
-27 13 -49 20 -22 7 -60 22 -85 33 -24 11 -58 20 -75 21 -16 0 -32 4 -35 7 -9
10 -100 36 -94 27 3 -5 -14 1 -37 14 -23 12 -59 22 -79 22 -21 1 -36 4 -33 9
2 4 -3 9 -11 12 -9 3 -24 8 -33 12 -10 3 -21 5 -25 5 -5 -1 -8 3 -8 9 0 8 -6
7 -17 -2 -9 -8 -14 -9 -10 -3 7 13 -59 37 -113 41 -47 3 -104 10 -110 13 -3 1
-9 2 -14 1 -18 -4 -66 11 -62 18 3 4 -15 8 -40 8 -24 1 -45 2 -46 3 -2 1 -18
3 -36 6 -18 2 -43 9 -55 16 -12 7 -29 14 -37 16 -44 10 -69 14 -105 16 -22 1
-56 7 -75 13 -19 7 -73 14 -119 18 -46 3 -93 10 -106 15 -12 5 -54 9 -91 9
-38 1 -107 4 -154 7 -47 3 -100 7 -117 8 -18 0 -33 4 -33 7 0 3 -6 6 -12 7 -7
1 -42 8 -78 17 -36 8 -79 15 -97 15 -17 0 -35 5 -38 10 -4 7 -11 7 -18 2 -14
-10 -210 -8 -247 3 -28 8 -56 12 -155 19 -38 3 -72 6 -75 7 -3 1 -9 1 -13 0
-4 -1 -16 3 -27 9 -13 7 -20 6 -23 -3 -3 -6 -6 -7 -6 -2 -1 6 -25 9 -53 9 -29
-1 -63 2 -75 7 -16 6 -23 5 -23 -4 0 -8 -4 -7 -10 3 -5 8 -10 10 -10 3 0 -6
-8 -10 -17 -8 -10 1 -24 -2 -30 -8 -8 -5 -13 -6 -13 0 0 5 -19 9 -42 10 -24 0
-104 4 -178 7 -74 4 -216 10 -315 12 -258 7 -264 7 -259 16 3 5 -8 7 -25 6
-16 -1 -28 -5 -25 -9 6 -11 -70 -26 -91 -19 -11 4 -31 4 -45 0 -14 -3 -50 -5
-80 -3 -30 2 -103 4 -162 5 -71 2 -103 6 -98 13 6 7 -3 10 -25 10 -18 0 -31
-4 -28 -8 3 -5 -5 -3 -18 4 -26 14 -42 16 -76 11z m-3338 -532 c3 -5 1 -10 -4
-10 -6 0 -11 5 -11 10 0 6 2 10 4 10 3 0 8 -4 11 -10z m83 -22 c-2 -7 5 -12
15 -10 9 2 17 -3 17 -10 0 -9 3 -9 10 2 8 13 10 13 10 -2 0 -9 6 -19 13 -22 8
-4 7 -5 -3 -5 -44 3 -53 -1 -40 -16 11 -13 10 -14 -4 -9 -17 7 -22 34 -6 34 6
0 10 5 10 11 0 5 -4 8 -8 5 -13 -8 -35 11 -28 23 9 15 17 14 14 -1z m97 -36
c-6 -8 -35 12 -35 24 0 11 4 10 18 -3 10 -10 18 -19 17 -21z m-141 -63 c5 -4
-7 -7 -28 -7 -20 0 -39 5 -43 11 -4 6 0 8 9 5 8 -4 21 -2 29 2 7 5 16 6 19 2
3 -4 9 -10 14 -13z m-20 -31 c-5 -7 -2 -9 8 -5 31 11 28 -7 -3 -20 -20 -8 -28
-17 -23 -25 5 -8 1 -8 -10 1 -17 14 -17 15 0 28 10 7 14 13 8 13 -5 0 -2 5 6
10 20 13 23 12 14 -2z m-57 -53 c0 -8 -4 -12 -9 -9 -5 3 -6 10 -3 15 9 13 12
11 12 -6z m-95 -42 c-2 -12 -11 -23 -19 -23 -10 0 -11 5 -4 19 6 10 8 20 6 23
-3 3 1 5 8 5 9 0 12 -9 9 -24z m15 -30 c-4 -3 -1 -13 6 -22 11 -14 10 -14 -5
-2 -16 12 -16 31 -1 31 4 0 3 -3 0 -7z m183 -93 c10 0 21 -4 24 -9 4 -5 -3 -7
-14 -4 -16 4 -19 2 -14 -11 7 -19 -9 -21 -25 -3 -14 17 -71 10 -71 -9 0 -8 -5
-14 -11 -14 -5 0 -8 4 -4 9 3 6 -3 15 -12 21 -15 9 -15 10 6 4 14 -3 21 -2 18
3 -4 6 7 9 23 8 17 -1 30 3 30 9 0 5 7 1 16 -10 14 -18 15 -18 10 6 -3 14 -3
19 0 13 3 -7 14 -13 24 -13z m-230 -15 c4 3 10 -4 13 -14 3 -14 0 -19 -13 -18
-10 1 -16 7 -13 14 3 7 0 13 -7 13 -6 0 -8 5 -4 12 6 9 9 9 12 0 2 -7 7 -10
12 -7z m327 2 c4 -4 -7 -7 -24 -5 -18 1 -30 5 -28 8 5 9 43 6 52 -3z m137 -43
c4 -9 4 -19 1 -22 -3 -3 -5 0 -5 7 0 7 -5 9 -10 6 -6 -4 -7 -11 -4 -17 4 -7 2
-8 -5 -4 -8 6 -9 12 -2 20 6 7 8 16 4 19 -3 4 -2 7 4 7 6 0 14 -7 17 -16z m69
-7 c6 3 7 1 4 -5 -9 -13 -42 -5 -58 14 -10 12 -7 12 16 0 16 -8 33 -12 38 -9z
m-63 -47 c0 -5 -5 -10 -11 -10 -5 0 -7 5 -4 10 3 6 8 10 11 10 2 0 4 -4 4 -10z
m30 -40 c8 -5 11 -10 5 -10 -5 0 -17 5 -25 10 -8 5 -10 10 -5 10 6 0 17 -5 25
-10z m-30 -17 c0 -3 -8 -12 -17 -20 -17 -14 -17 -14 0 -9 27 8 20 -2 -13 -19
-17 -9 -30 -11 -30 -5 0 5 8 10 18 10 13 0 14 2 4 9 -11 6 -10 10 3 15 10 3
15 12 12 21 -4 9 -1 12 9 8 7 -3 14 -8 14 -10z m34 -29 c3 -8 2 -12 -4 -9 -6
3 -10 10 -10 16 0 14 7 11 14 -7z m-294 -58 c0 -5 -6 -3 -13 3 -8 6 -18 7 -23
3 -4 -4 -2 1 5 11 11 14 16 15 22 5 5 -7 9 -17 9 -22z m9100 14 c0 -5 -5 -10
-11 -10 -5 0 -7 5 -4 10 3 6 8 10 11 10 2 0 4 -4 4 -10z m7 -55 c0 -8 -4 -12
-9 -9 -5 3 -6 10 -3 15 9 13 12 11 12 -6z m-9057 -15 c-8 -5 -19 -10 -25 -10
-5 0 -3 5 5 10 8 5 20 10 25 10 6 0 3 -5 -5 -10z m-40 -23 c0 -8 -7 -14 -15
-14 -25 0 -17 17 13 26 1 1 2 -5 2 -12z m-190 -62 c0 -2 -7 -8 -15 -15 -12
-10 -15 -10 -15 2 0 8 7 15 15 15 8 0 15 -1 15 -2z m-43 -37 c-3 -8 -6 -5 -6
6 -1 11 2 17 5 13 3 -3 4 -12 1 -19z m80 -23 c0 -8 -4 -12 -9 -9 -4 3 -8 9 -8
15 0 5 4 9 8 9 5 0 9 -7 9 -15z m13 -37 c0 -4 -9 -8 -20 -8 -11 0 -20 4 -20 8
0 4 9 8 20 8 11 0 20 -4 20 -8z m8975 -6 c-3 -3 -11 0 -18 7 -9 10 -8 11 6 5
10 -3 15 -9 12 -12z m51 -10 c-2 -1 -16 -5 -32 -7 -24 -4 -26 -3 -11 6 9 5 15
15 11 20 -3 6 3 5 14 -2 12 -7 20 -15 18 -17z m-9001 -1 c3 -5 2 -12 -3 -15
-5 -3 -9 1 -9 9 0 17 3 19 12 6z m9028 -16 c-3 -9 -8 -14 -10 -11 -3 3 -2 9 2
15 9 16 15 13 8 -4z m-8903 -80 c0 -7 -30 -13 -34 -7 -3 4 4 9 15 9 10 1 19 0
19 -2z m167 -30 c-4 -8 -2 -17 3 -20 6 -4 10 -1 10 6 0 7 3 9 7 6 3 -4 12 -2
19 4 10 8 19 6 36 -5 12 -9 18 -16 12 -16 -5 0 -15 5 -21 11 -14 14 -55 -10
-49 -28 3 -7 0 -15 -7 -19 -7 -4 -9 -4 -5 1 5 5 -1 14 -12 22 -17 12 -18 17
-7 33 14 24 21 26 14 5z m8661 -20 c-3 -3 -9 2 -12 12 -6 14 -5 15 5 6 7 -7
10 -15 7 -18z m142 5 c0 -5 -20 -8 -45 -8 -59 0 -59 13 0 14 25 1 45 -2 45 -6z
m-8676 -30 c-6 -6 -10 -3 -10 10 0 13 4 16 10 10 7 -7 7 -13 0 -20z m8476 15
c-14 -17 -30 -20 -30 -6 0 5 8 12 18 14 9 3 19 5 21 6 2 0 -2 -6 -9 -14z
m-8545 -5 c-3 -5 -11 -10 -16 -10 -6 0 -7 5 -4 10 3 6 11 10 16 10 6 0 7 -4 4
-10z m8715 -21 c0 -6 -4 -7 -10 -4 -5 3 -10 11 -10 16 0 6 5 7 10 4 6 -3 10
-11 10 -16z m-8696 3 c3 -5 -1 -9 -9 -9 -8 0 -12 4 -9 9 3 4 7 8 9 8 2 0 6 -4
9 -8z m8779 -7 c-3 -9 -8 -14 -10 -11 -3 3 -2 9 2 15 9 16 15 13 8 -4z m-162
-80 c5 4 6 -1 3 -9 -5 -12 -9 -13 -19 -3 -7 7 -10 16 -7 22 3 5 7 4 10 -3 2
-7 8 -10 13 -7z m36 0 c0 -8 -4 -12 -9 -9 -4 3 -8 9 -8 15 0 5 4 9 8 9 5 0 9
-7 9 -15z m-77 -56 c0 -5 -4 -9 -8 -9 -5 0 -9 7 -9 15 0 8 4 12 9 9 4 -3 8 -9
8 -15z m107 1 c2 -25 -15 -36 -24 -15 -5 13 4 27 22 35 1 0 1 -9 2 -20z
m-8967 -21 c0 -3 -9 -9 -19 -12 -13 -3 -18 0 -15 7 5 13 34 18 34 5z m-210
-60 c0 -8 4 -8 14 0 10 8 16 9 21 1 4 -6 1 -9 -7 -8 -8 2 -12 -6 -11 -22 l3
-25 -10 23 c-5 13 -14 21 -18 18 -5 -3 -9 1 -9 9 0 8 4 15 9 15 4 0 8 -5 8
-11z m8970 0 c0 -5 -4 -8 -9 -5 -5 4 -4 -5 2 -19 8 -17 18 -24 29 -21 9 2 19
-2 22 -9 3 -9 -2 -11 -15 -8 -14 4 -18 1 -14 -9 4 -9 0 -15 -9 -15 -8 0 -12 6
-8 15 3 10 1 13 -6 8 -7 -4 -19 -1 -27 7 -13 13 -13 17 0 27 8 7 14 15 13 18
-1 15 2 22 12 22 6 0 10 -5 10 -11z m51 -29 c5 0 9 -5 9 -11 0 -8 -5 -8 -15 1
-8 7 -15 9 -15 5 0 -4 -7 -1 -16 6 -14 12 -14 14 3 20 11 4 19 1 21 -7 2 -8 8
-14 13 -14z m82 -8 c5 -2 0 -10 -9 -17 -20 -14 -45 1 -37 22 4 10 22 9 46 -5z
m-9226 -24 c-11 -7 -2 -12 16 -9 5 1 5 -4 2 -10 -5 -8 -10 -8 -18 0 -13 13
-31 15 -23 3 2 -4 -6 -8 -19 -8 -13 0 -21 4 -19 8 3 4 0 8 -5 8 -6 0 -11 -6
-12 -12 0 -10 -2 -10 -6 0 -2 6 -10 10 -16 6 -7 -3 -3 2 7 10 14 11 23 13 32
5 10 -8 16 -5 25 9 10 16 16 18 30 9 13 -8 15 -13 6 -19z m1710 7 c0 -17 -13
-20 -21 -6 -4 5 0 12 6 14 7 3 13 6 14 6 0 1 1 -6 1 -14z m-1508 -29 c-3 -3
-11 5 -18 17 -13 21 -12 21 5 5 10 -10 16 -20 13 -22z m1461 25 c-19 -11 -123
-20 -113 -10 7 7 44 13 108 17 16 1 17 0 5 -7z m7385 -21 c-1 -11 -4 -22 -7
-25 -4 -5 -4 34 1 43 4 8 7 -1 6 -18z m-52 -14 c15 -1 27 -4 27 -8 0 -4 -21
-7 -46 -6 -25 2 -40 4 -34 6 9 3 9 7 -1 14 -10 7 -8 8 6 2 11 -4 32 -8 48 -8z
m-86 -2 c-3 -3 -12 -4 -19 -1 -8 3 -5 6 6 6 11 1 17 -2 13 -5z m1 -49 c-3 -3
-9 2 -12 12 -6 14 -5 15 5 6 7 -7 10 -15 7 -18z m67 -5 c3 -6 -1 -7 -9 -4 -18
7 -21 14 -7 14 6 0 13 -4 16 -10z m65 -244 c0 -3 -4 -8 -10 -11 -5 -3 -10 -1
-10 4 0 6 5 11 10 11 6 0 10 -2 10 -4z m-77 -136 c7 0 3 8 -8 17 -16 13 -17
15 -2 10 10 -4 17 -1 17 6 0 7 4 6 10 -3 6 -10 5 -19 -4 -29 -19 -19 -63 -22
-70 -6 -3 10 0 12 12 8 14 -5 15 -3 5 8 -21 22 -14 30 7 9 11 -11 26 -20 33
-20z m-1273 26 c0 -2 -8 -10 -17 -17 -16 -13 -17 -12 -4 4 13 16 21 21 21 13z
m321 -13 c13 -16 12 -17 -3 -4 -10 7 -18 15 -18 17 0 8 8 3 21 -13z m-604 -8
c0 -8 -4 -12 -9 -9 -5 3 -6 10 -3 15 9 13 12 11 12 -6z m869 -6 c19 -22 19
-22 -3 -8 -13 8 -23 17 -23 21 0 12 6 9 26 -13z m-203 -10 c-4 -15 -9 -17 -17
-9 -8 8 -7 13 4 20 8 5 16 10 17 10 0 0 -1 -9 -4 -21z m652 12 c-3 -6 3 -14
12 -20 16 -9 16 -10 -3 -8 -14 1 -21 7 -19 17 5 21 4 20 11 20 3 0 3 -4 -1 -9z
m-478 -30 c0 -10 -8 -18 -16 -16 -22 3 -25 23 -4 28 10 3 19 5 20 6 1 0 1 -7
0 -18z m-522 0 c3 -5 2 -12 -3 -15 -5 -3 -9 1 -9 9 0 17 3 19 12 6z m122 -11
c-1 -11 -5 -20 -9 -20 -10 0 -10 4 -2 24 8 22 13 20 11 -4z m158 10 c3 -5 1
-10 -4 -10 -6 0 -11 5 -11 10 0 6 2 10 4 10 3 0 8 -4 11 -10z m-229 -16 c-3
-18 -26 -35 -38 -28 -4 3 -8 1 -8 -4 0 -14 -52 -10 -68 5 -10 9 -4 11 28 9 22
-2 40 0 40 4 0 5 21 19 47 29 1 1 0 -6 -1 -15z m-490 -9 c-1 -8 -5 -17 -8 -21
-5 -4 -4 16 1 34 3 9 9 -1 7 -13z m529 5 c-3 -5 -12 -10 -18 -10 -7 0 -6 4 3
10 19 12 23 12 15 0z m-285 -40 c0 7 3 11 6 7 12 -12 -7 -28 -21 -17 -7 6 -20
8 -29 4 -9 -3 -16 -1 -16 6 0 6 5 8 10 5 6 -3 10 -1 10 6 0 7 8 5 20 -6 14
-13 20 -14 20 -5z m42 13 c-6 -2 -9 -10 -6 -15 4 -7 2 -8 -5 -4 -13 9 -5 26
12 25 9 0 8 -2 -1 -6z m-117 -13 c4 -6 1 -17 -5 -25 -14 -16 0 -21 16 -5 6 6
9 0 9 -15 0 -28 -5 -31 -23 -13 -9 9 -11 6 -7 -11 2 -13 0 -19 -7 -15 -6 4 -8
-2 -4 -17 6 -20 5 -21 -4 -6 -6 9 -8 23 -3 30 17 28 12 38 -18 32 -19 -4 -29
-3 -29 5 0 6 -5 8 -12 4 -7 -5 -8 -3 -3 5 5 9 10 10 18 2 15 -15 30 -14 21 1
-4 6 -3 8 4 5 13 -9 42 2 42 15 0 5 -4 6 -10 3 -5 -3 -10 -1 -10 4 0 14 17 14
25 1z m312 -16 c-3 -3 -12 -4 -19 -1 -8 3 -5 6 6 6 11 1 17 -2 13 -5z m-251
-16 c4 -7 3 -8 -4 -4 -7 4 -12 2 -12 -5 0 -7 -3 -10 -6 -6 -6 5 3 27 11 27 2
0 7 -5 11 -12z m-142 -41 c6 -4 2 -5 -9 -4 -26 5 -75 25 -75 31 0 7 32 -5 49
-18 11 -9 13 -6 7 14 -6 23 -6 23 5 5 7 -11 17 -23 23 -28z m386 39 c0 -3 -4
-8 -10 -11 -5 -3 -10 -1 -10 4 0 6 5 11 10 11 6 0 10 -2 10 -4z m-599 -39
c-10 -9 -11 -8 -5 6 3 10 9 15 12 12 3 -3 0 -11 -7 -18z m251 6 c-6 -2 -9 -10
-6 -15 4 -7 2 -8 -5 -4 -13 9 -5 26 12 25 9 0 8 -2 -1 -6z m-181 -30 c13 -16
12 -17 -3 -4 -10 7 -18 15 -18 17 0 8 8 3 21 -13z m314 6 c4 -5 1 -16 -5 -24
-9 -11 -9 -15 -1 -15 6 0 11 4 11 9 0 12 48 1 61 -15 9 -11 8 -14 -4 -14 -8 0
-17 5 -19 11 -2 7 -13 9 -26 5 -13 -4 -20 -13 -16 -19 3 -7 -1 -4 -9 5 -8 10
-17 16 -21 13 -3 -3 -2 1 4 7 15 18 12 38 -5 32 -8 -4 -12 -10 -9 -15 3 -5 1
-9 -4 -9 -10 0 -23 25 -17 32 9 9 55 7 60 -3z m-355 -9 c0 -5 -5 -10 -11 -10
-5 0 -7 5 -4 10 3 6 8 10 11 10 2 0 4 -4 4 -10z m134 -6 c3 -8 2 -12 -4 -9 -6
3 -10 10 -10 16 0 14 7 11 14 -7z m49 8 c3 9 8 10 13 3 5 -5 7 -9 5 -8 -2 2
-10 -2 -16 -7 -9 -7 -17 -5 -26 7 -13 16 -12 17 3 5 13 -10 17 -10 21 0z m88
-19 c-12 -20 -14 -14 -5 12 4 9 9 14 11 11 3 -2 0 -13 -6 -23z m144 17 c-3 -5
-15 -10 -26 -10 -10 0 -19 5 -19 10 0 6 12 10 26 10 14 0 23 -4 19 -10z m-183
-37 c-6 -3 -9 -10 -5 -16 4 -7 -1 -6 -10 2 -21 17 -21 17 6 18 12 0 16 -1 9
-4z m1282 -324 c-3 -5 -10 -7 -15 -3 -5 3 -7 10 -3 15 3 5 10 7 15 3 5 -3 7
-10 3 -15z m-137 -143 c0 -8 -6 -12 -15 -9 -11 5 -11 7 0 14 7 5 13 9 14 9 0
0 1 -6 1 -14z m-7 -30 c0 -2 -7 -7 -16 -10 -8 -3 -12 -2 -9 4 6 10 25 14 25 6z
m35 -26 c3 -6 -1 -7 -9 -4 -18 7 -21 14 -7 14 6 0 13 -4 16 -10z m141 -50 c0
-9 -5 -17 -11 -17 -6 0 -11 8 -11 17 0 9 5 17 11 17 6 0 11 -8 11 -17z m134
-90 c0 -5 -2 -10 -4 -10 -3 0 -8 5 -11 10 -3 6 -1 10 4 10 6 0 11 -4 11 -10z
m80 -30 c0 -5 -5 -10 -11 -10 -5 0 -7 5 -4 10 3 6 8 10 11 10 2 0 4 -4 4 -10z
m-82 -15 c3 -3 0 -5 -7 -5 -7 0 -9 -4 -6 -10 10 -17 -1 -11 -20 10 -17 19 -17
19 5 15 13 -2 25 -7 28 -10z m42 6 c0 -5 -7 -11 -14 -14 -10 -4 -13 -1 -9 9 6
15 23 19 23 5z m-183 -26 c0 -8 -4 -12 -9 -9 -4 3 -8 9 -8 15 0 5 4 9 8 9 5 0
9 -7 9 -15z m103 -4 c0 -5 -7 -12 -16 -15 -14 -5 -15 -4 -4 9 14 17 20 19 20
6z m-86 -30 c-8 -8 -43 -8 -38 0 2 4 13 7 24 6 10 -1 17 -3 14 -6z m-24 -37
c0 -8 -19 -13 -24 -6 -3 5 1 9 9 9 8 0 15 -2 15 -3z m73 -38 c4 -9 -2 -13 -18
-13 -19 0 -21 2 -12 13 15 17 24 17 30 0z m130 -71 c-7 -21 -12 -19 -10 4 0
11 5 18 9 15 4 -3 5 -11 1 -19z m-33 11 c0 -2 -7 -7 -16 -10 -8 -3 -12 -2 -9
4 6 10 25 14 25 6z m10 -26 c0 -5 -2 -10 -4 -10 -3 0 -8 5 -11 10 -3 6 -1 10
4 10 6 0 11 -4 11 -10z m150 -5 c0 -2 -9 -3 -19 -2 -11 0 -18 5 -15 9 4 6 34
0 34 -7z m-185 -45 c-4 -6 -1 -17 5 -25 8 -10 9 -15 2 -15 -6 0 -14 5 -17 10
-7 12 0 40 10 40 4 0 3 -5 0 -10z m60 1 c3 -5 2 -12 -3 -15 -5 -3 -9 1 -9 9 0
17 3 19 12 6z m-79 -93 c3 -4 -1 -5 -10 -4 -8 1 -18 5 -22 8 -3 4 1 5 10 4 8
-1 18 -5 22 -8z m-19 -70 c-3 -8 -6 -5 -6 6 -1 11 2 17 5 13 3 -3 4 -12 1 -19z
m-57 -28 c0 -5 -5 -10 -11 -10 -5 0 -7 5 -4 10 3 6 8 10 11 10 2 0 4 -4 4 -10z
m40 -10 c0 -5 -2 -10 -4 -10 -3 0 -8 5 -11 10 -3 6 -1 10 4 10 6 0 11 -4 11
-10z m-220 -84 c0 -3 -4 -8 -10 -11 -5 -3 -10 -1 -10 4 0 6 5 11 10 11 6 0 10
-2 10 -4z m-23 -92 c-3 -3 -12 -4 -19 -1 -8 3 -5 6 6 6 11 1 17 -2 13 -5z m20
-32 c-7 -10 -13 -10 -15 -3 -2 6 -9 8 -14 5 -6 -4 -8 -3 -5 2 3 5 15 10 26 10
16 0 18 -3 8 -14z m-73 0 c3 -5 -1 -9 -9 -9 -8 0 -12 4 -9 9 3 4 7 8 9 8 2 0
6 -4 9 -8z m-24 -86 c0 -3 -4 -8 -10 -11 -5 -3 -10 -1 -10 4 0 6 5 11 10 11 6
0 10 -2 10 -4z m127 -62 c-3 -3 -12 -4 -19 -1 -8 3 -5 6 6 6 11 1 17 -2 13 -5z
m-132 -104 c-3 -5 -1 -10 6 -10 7 0 10 -3 6 -6 -9 -9 -28 6 -22 17 4 5 8 9 11
9 3 0 2 -4 -1 -10z m343 -177 c30 -19 43 -35 36 -42 -2 -2 -11 4 -20 15 -15
18 -15 18 -9 -3 3 -12 1 -24 -5 -28 -6 -4 -9 -1 -8 7 2 7 -4 12 -13 12 -9 -1
-21 8 -28 18 -7 12 -8 17 -2 13 6 -3 11 1 11 9 0 20 4 20 38 -1z m59 -50 c-4
-3 -2 -12 4 -20 8 -9 8 -13 1 -13 -6 0 -9 -7 -6 -15 4 -8 1 -15 -6 -15 -8 0
-10 9 -6 25 4 17 2 25 -6 25 -9 0 -8 3 2 10 17 11 26 13 17 3z m68 -224 c-6
-9 -45 -8 -45 2 0 4 11 7 25 7 13 0 22 -4 20 -9z m194 -173 c-3 -3 -11 5 -18
17 -13 21 -12 21 5 5 10 -10 16 -20 13 -22z m81 -151 c0 -3 -10 -10 -22 -15
l-23 -9 24 0 c13 -1 21 -4 17 -8 -11 -11 -30 -10 -39 2 -5 6 -7 4 -4 -5 2 -8
10 -14 16 -12 6 1 11 -4 11 -10 1 -8 7 -5 15 6 8 10 12 23 9 27 -3 5 0 9 6 9
20 0 24 -32 5 -46 -26 -19 -32 -18 -60 10 -13 13 -26 20 -29 15 -2 -5 -4 -5
-2 1 1 7 5 11 9 11 3 0 19 6 34 14 31 17 33 17 33 10z m-121 -59 c8 -10 9 -16
1 -21 -6 -4 -10 -3 -9 2 3 20 -2 25 -16 13 -9 -8 -15 -8 -15 -2 0 6 6 13 13
15 6 3 13 6 13 6 1 1 7 -5 13 -13z m-25 -74 c3 -5 -1 -9 -9 -9 -8 0 -12 4 -9
9 3 4 7 8 9 8 2 0 6 -4 9 -8z m86 -16 c0 -3 -4 -8 -10 -11 -5 -3 -10 -1 -10 4
0 6 5 11 10 11 6 0 10 -2 10 -4z m49 -48 c-7 -12 -13 -26 -12 -29 1 -3 -4 -6
-12 -6 -8 0 -11 7 -7 16 4 13 2 13 -15 -2 -11 -9 -22 -14 -25 -11 -4 3 -17 0
-30 -6 -22 -11 -22 -11 2 9 14 11 22 21 18 22 -5 1 -12 2 -17 3 -5 0 -13 4
-16 8 -4 4 4 5 18 2 14 -2 29 1 32 7 5 7 13 4 26 -7 11 -9 22 -14 26 -10 4 4
1 11 -6 16 -11 6 -10 9 5 12 26 6 28 3 13 -24z m-134 -27 c3 -5 2 -12 -3 -15
-5 -3 -9 1 -9 9 0 17 3 19 12 6z m115 -31 c12 -8 12 -10 1 -10 -11 0 -11 -3
-1 -15 7 -8 9 -15 4 -16 -5 0 -24 -2 -42 -3 -29 -3 -31 -2 -20 12 8 10 8 13 2
9 -7 -4 -14 -1 -17 7 -4 9 0 12 13 9 10 -3 21 0 24 6 9 13 16 14 36 1z m-110
-10 c0 -5 -5 -10 -11 -10 -5 0 -7 5 -4 10 3 6 8 10 11 10 2 0 4 -4 4 -10z
m-13 -74 c-2 -6 -15 -10 -30 -8 -18 2 -27 -2 -32 -17 -8 -25 -33 -23 -64 6
-23 21 -23 22 -2 16 11 -3 21 -12 21 -20 0 -8 5 -11 10 -8 7 4 6 14 -1 28 -9
19 -8 19 11 -3 16 -18 20 -20 16 -7 -3 11 -2 16 4 12 6 -3 10 -2 10 3 0 5 12
7 27 4 l27 -5 -17 29 -18 29 21 -24 c11 -13 19 -29 17 -35z m37 29 c-4 -10 -2
-13 8 -10 9 4 15 -1 15 -12 0 -22 -16 -45 -28 -37 -9 5 -13 -11 -9 -31 1 -5
-7 -2 -18 8 -20 18 -37 23 -27 8 3 -5 1 -12 -4 -15 -5 -4 -8 2 -6 11 2 10 4
22 4 26 1 5 5 6 10 3 10 -7 28 12 33 34 2 12 17 29 25 30 1 0 0 -7 -3 -15z
m-169 -63 c-3 -3 -11 0 -18 7 -9 10 -8 11 6 5 10 -3 15 -9 12 -12z m82 -24
c-3 -8 -6 -5 -6 6 -1 11 2 17 5 13 3 -3 4 -12 1 -19z m-132 2 c-3 -5 -12 -10
-18 -10 -7 0 -6 4 3 10 19 12 23 12 15 0z m267 -74 c-3 -5 -9 -1 -14 8 -5 9
-13 14 -18 11 -5 -3 -12 0 -16 6 -4 8 -3 9 4 5 7 -4 12 -2 12 3 0 6 8 3 18 -6
11 -10 17 -22 14 -27z m-162 -46 c0 -5 -5 -10 -11 -10 -5 0 -7 5 -4 10 3 6 8
10 11 10 2 0 4 -4 4 -10z m60 0 c-8 -5 -19 -10 -25 -10 -5 0 -3 5 5 10 8 5 20
10 25 10 6 0 3 -5 -5 -10z m-213 -45 c0 -8 -4 -12 -9 -9 -5 3 -6 10 -3 15 9
13 12 11 12 -6z m-43 -21 c3 -8 2 -12 -4 -9 -6 3 -10 10 -10 16 0 14 7 11 14
-7z m-235 -38 c9 -11 9 -16 -1 -22 -7 -4 -10 -4 -6 1 4 4 3 14 -3 22 -6 7 -9
13 -6 13 2 0 10 -6 16 -14z m-519 -86 c0 -5 -5 -10 -11 -10 -5 0 -7 5 -4 10 3
6 8 10 11 10 2 0 4 -4 4 -10z m-867 -45 c-7 -21 -12 -19 -10 4 0 11 5 18 9 15
4 -3 5 -11 1 -19z m82 14 c4 -5 -2 -6 -11 -2 -13 5 -15 3 -9 -8 8 -12 6 -12
-8 0 -21 17 -21 16 3 18 11 1 22 -2 25 -8z m218 -16 c-6 -15 -4 -16 9 -5 12
10 18 10 23 1 6 -8 10 -7 16 2 5 8 9 10 9 4 0 -5 -5 -17 -10 -25 -9 -13 -10
-13 -10 0 0 13 -1 13 -10 0 -8 -13 -11 -13 -26 2 -9 9 -13 21 -10 27 11 17 16
13 9 -6z m-369 -9 c3 -8 2 -12 -4 -9 -6 3 -10 10 -10 16 0 14 7 11 14 -7z
m110 8 c2 -4 -5 -9 -17 -9 -17 -2 -19 0 -7 7 18 12 18 12 24 2z m105 -25 c0
-9 -2 -8 -6 1 -2 6 -10 9 -15 6 -7 -4 -8 -2 -4 5 9 13 26 5 25 -12z m-261 1
c-6 -16 -38 -23 -38 -9 0 6 7 7 17 4 11 -4 14 -3 9 5 -4 7 -2 12 4 12 7 0 10
-6 8 -12z m322 -17 c0 -5 -9 -7 -20 -4 -11 3 -20 7 -20 9 0 2 9 4 20 4 11 0
20 -4 20 -9z"/>
<path d="M439 7173 c-13 -17 -13 -17 6 -3 11 8 22 16 24 17 2 2 0 3 -6 3 -6 0
-17 -8 -24 -17z"/>
<path d="M8225 6650 c-3 -6 1 -7 9 -4 18 7 21 14 7 14 -6 0 -13 -4 -16 -10z"/>
<path d="M9634 3875 c-9 -21 -2 -26 13 -10 8 9 9 16 3 20 -6 3 -13 -1 -16 -10z"/>
<path d="M9650 3806 c0 -8 4 -17 9 -20 5 -4 7 3 4 14 -6 23 -13 26 -13 6z"/>
<path d="M9555 3711 c-3 -5 -1 -12 5 -16 5 -3 10 1 10 9 0 18 -6 21 -15 7z"/>
<path d="M637 8544 c-3 -4 3 -14 14 -23 21 -17 21 -17 -7 -29 -26 -11 -27 -11
-10 2 17 14 17 15 -9 13 -16 -1 -30 -8 -33 -15 -2 -7 0 -12 5 -11 4 1 10 0 13
-1 14 -6 78 -5 75 1 -3 4 2 10 11 13 8 3 12 2 9 -4 -3 -6 -1 -10 4 -10 19 0
12 22 -8 27 -12 3 -17 11 -14 19 4 10 0 12 -12 8 -9 -4 -20 -2 -24 5 -4 6 -10
8 -14 5z"/>
<path d="M520 8522 c0 -7 -5 -11 -11 -9 -6 1 -14 -4 -16 -10 -3 -7 0 -13 5
-13 14 0 36 29 28 37 -3 3 -6 1 -6 -5z"/>
<path d="M570 8520 c0 -5 5 -10 11 -10 5 0 7 5 4 10 -3 6 -8 10 -11 10 -2 0
-4 -4 -4 -10z"/>
<path d="M556 8485 c-3 -8 -1 -15 4 -15 6 0 10 7 10 15 0 8 -2 15 -4 15 -2 0
-6 -7 -10 -15z"/>
<path d="M820 8455 c14 -17 30 -20 30 -4 0 5 -4 7 -10 4 -5 -3 -10 -1 -10 4 0
6 -5 11 -11 11 -8 0 -8 -5 1 -15z"/>
<path d="M728 8453 c7 -3 16 -2 19 1 4 3 -2 6 -13 5 -11 0 -14 -3 -6 -6z"/>
<path d="M619 8343 c-13 -17 -13 -17 6 -3 11 8 22 16 24 17 2 2 0 3 -6 3 -6 0
-17 -8 -24 -17z"/>
<path d="M512 8334 c9 -9 30 -18 47 -19 25 -2 31 1 31 16 0 11 -4 19 -10 19
-5 0 -6 -8 -3 -17 6 -16 5 -16 -10 -4 -9 7 -17 11 -17 7 0 -3 -12 -1 -27 5
-26 10 -27 9 -11 -7z"/>
<path d="M470 8319 c0 -5 9 -9 20 -9 11 0 20 2 20 4 0 2 -9 6 -20 9 -11 3 -20
1 -20 -4z"/>
<path d="M502 8288 c-15 -15 -15 -26 1 -41 17 -16 37 -20 37 -7 0 6 -6 10 -14
10 -8 0 -18 4 -21 10 -4 6 1 7 12 4 15 -5 16 -4 3 5 -13 10 -13 12 0 21 8 5
10 10 5 10 -6 0 -16 -5 -23 -12z"/>
<path d="M554 8225 c-10 -8 -14 -15 -8 -15 6 0 17 7 24 15 16 19 9 19 -16 0z"/>
<path d="M438 8213 c-10 -3 -18 -9 -18 -14 0 -6 -5 -7 -12 -3 -7 4 -8 3 -4 -4
5 -9 13 -9 29 0 19 10 20 9 10 -4 -10 -12 -10 -15 1 -15 15 0 29 34 18 40 -4
2 -15 2 -24 0z"/>
<path d="M301 8164 c0 -11 3 -14 6 -6 3 7 2 16 -1 19 -3 4 -6 -2 -5 -13z"/>
<path d="M365 8167 c3 -7 15 -13 26 -14 24 -2 23 0 -8 16 -18 9 -22 9 -18 -2z"/>
<path d="M470 8155 c-15 -18 -35 -20 -24 -3 4 7 3 8 -4 4 -17 -10 -15 -16 11
-25 12 -5 32 -5 44 0 17 6 21 5 16 -6 -3 -8 0 -15 6 -15 12 0 14 11 5 35 -6
14 -9 14 -30 0 -13 -8 -24 -11 -24 -6 0 6 8 15 18 20 9 6 12 11 6 11 -6 0 -17
-7 -24 -15z"/>
<path d="M777 8092 c3 -7 9 -10 12 -5 3 4 10 11 15 15 4 4 -1 6 -12 5 -12 -1
-18 -6 -15 -15z"/>
<path d="M950 8089 c0 -6 6 -7 13 -3 6 4 8 3 4 -1 -12 -14 -37 -15 -37 -2 0 7
-5 5 -10 -3 -5 -8 -10 -10 -10 -3 0 12 -37 6 -45 -7 -3 -5 5 -6 17 -2 17 4 20
2 15 -12 -4 -10 -3 -15 3 -11 6 3 10 1 10 -5 0 -7 7 -5 16 5 12 12 19 13 30 4
13 -11 18 -5 15 15 -1 4 3 13 8 20 7 8 4 12 -10 13 -10 1 -19 -3 -19 -8z"/>
<path d="M857 8035 c-4 -8 -3 -16 1 -19 4 -3 9 4 9 15 2 23 -3 25 -10 4z"/>
<path d="M784 8018 c2 -7 -4 -18 -13 -25 -9 -7 -11 -13 -5 -13 5 0 20 9 32 20
24 23 31 40 8 21 -10 -8 -16 -9 -19 -1 -3 6 -4 5 -3 -2z"/>
<path d="M650 8005 c0 -2 6 -8 13 -14 10 -8 14 -7 14 2 0 8 -6 14 -14 14 -7 0
-13 -1 -13 -2z"/>
<path d="M914 8003 c3 -6 0 -13 -6 -16 -10 -4 -10 -7 -1 -17 10 -11 14 -10 19
4 4 10 1 23 -6 29 -10 9 -11 9 -6 0z"/>
<path d="M946 7992 c-3 -5 1 -9 9 -9 8 0 12 4 9 9 -3 4 -7 8 -9 8 -2 0 -6 -4
-9 -8z"/>
<path d="M603 7970 c-3 -11 -10 -17 -16 -13 -6 3 -7 1 -3 -6 9 -14 26 -5 26
15 0 9 5 12 12 8 7 -4 8 -3 4 4 -10 17 -17 15 -23 -8z"/>
<path d="M879 7974 c0 -5 -2 -17 -4 -27 -3 -13 0 -15 9 -8 16 13 37 -5 29 -25
-3 -8 0 -14 6 -14 6 0 11 7 11 15 0 8 5 15 10 15 20 0 9 16 -12 17 -13 1 -28
10 -35 19 -7 10 -13 14 -14 8z"/>
<path d="M690 7963 c0 -6 8 -17 18 -24 16 -13 16 -13 2 6 -8 11 -16 22 -17 24
-2 2 -3 0 -3 -6z"/>
<path d="M715 7960 c3 -5 8 -10 11 -10 2 0 4 5 4 10 0 6 -5 10 -11 10 -5 0 -7
-4 -4 -10z"/>
<path d="M9961 7922 c-8 -15 -4 -20 22 -30 25 -9 29 -9 16 1 -9 7 -15 20 -13
30 3 22 -13 22 -25 -1z"/>
<path d="M882 7921 c-11 -7 -11 -9 0 -14 9 -3 15 1 15 9 0 8 -1 14 -1 14 -1 0
-7 -4 -14 -9z"/>
<path d="M737 7895 c-4 -8 -3 -16 1 -19 4 -3 9 4 9 15 2 23 -3 25 -10 4z"/>
<path d="M653 7855 c0 -8 4 -12 9 -9 5 3 6 10 3 15 -9 13 -12 11 -12 -6z"/>
<path d="M695 7860 c-3 -5 -1 -10 4 -10 6 0 11 5 11 10 0 6 -2 10 -4 10 -3 0
-8 -4 -11 -10z"/>
<path d="M435 7820 c3 -5 8 -10 11 -10 2 0 4 5 4 10 0 6 -5 10 -11 10 -5 0 -7
-4 -4 -10z"/>
<path d="M9937 7791 c-15 -16 -15 -20 -3 -30 10 -8 16 -9 21 -1 3 6 10 8 15 5
5 -3 11 -1 15 5 4 6 11 8 16 5 5 -4 9 -1 9 4 0 6 -5 11 -11 11 -5 0 -7 5 -4
10 3 6 1 10 -5 10 -7 0 -10 -7 -7 -15 4 -8 2 -17 -3 -20 -9 -6 -14 8 -11 28 2
12 -13 7 -32 -12z m23 -17 c0 -8 -19 -13 -24 -6 -3 5 1 9 9 9 8 0 15 -2 15 -3z"/>
<path d="M334 7749 c-3 -6 -2 -15 3 -20 5 -5 9 -1 9 11 0 23 -2 24 -12 9z"/>
<path d="M9725 7751 c-6 -11 13 -26 22 -17 4 3 0 6 -8 6 -11 0 -11 2 1 10 9 6
10 10 3 10 -6 0 -14 -4 -18 -9z"/>
<path d="M507 7739 c7 -7 15 -10 18 -7 3 3 -2 9 -12 12 -14 6 -15 5 -6 -5z"/>
<path d="M9760 7746 c0 -2 7 -7 16 -10 8 -3 12 -2 9 4 -6 10 -25 14 -25 6z"/>
<path d="M227 7699 c7 -7 15 -10 18 -7 3 3 -2 9 -12 12 -14 6 -15 5 -6 -5z"/>
<path d="M370 7706 c0 -2 7 -9 15 -16 13 -11 14 -10 9 4 -5 14 -24 23 -24 12z"/>
<path d="M273 7679 c-2 -23 3 -25 10 -4 4 8 3 16 -1 19 -4 3 -9 -4 -9 -15z"/>
<path d="M383 7653 c-20 -8 -15 -19 9 -20 16 -2 19 0 9 6 -11 7 -11 9 0 14 8
3 10 5 4 5 -5 0 -16 -2 -22 -5z"/>
<path d="M322 7645 c4 -4 3 -14 -2 -20 -7 -9 -5 -17 7 -26 16 -12 17 -12 6 2
-9 11 -9 19 -2 26 8 8 7 13 -3 18 -7 5 -10 5 -6 0z"/>
<path d="M365 7611 c3 -2 0 -10 -6 -17 -7 -8 -7 -14 1 -19 6 -4 9 -2 8 4 -2 5
5 16 15 23 18 13 17 14 -2 14 -11 0 -18 -2 -16 -5z"/>
<path d="M9871 7608 c-1 -20 14 -24 25 -6 4 6 3 8 -4 4 -5 -3 -13 0 -15 6 -3
8 -6 6 -6 -4z"/>
<path d="M9870 7561 c0 -6 4 -13 10 -16 6 -3 7 1 4 9 -7 18 -14 21 -14 7z"/>
<path d="M9840 7530 c-8 -5 -10 -10 -5 -10 6 0 17 5 25 10 8 5 11 10 5 10 -5
0 -17 -5 -25 -10z"/>
<path d="M856 7514 c-3 -9 -1 -12 4 -9 6 4 10 -6 10 -21 0 -30 8 -28 14 2 5
25 -20 50 -28 28z"/>
<path d="M743 7503 c-7 -3 -13 -9 -13 -15 0 -7 5 -6 14 1 11 10 15 8 19 -6 4
-16 5 -16 6 -1 1 19 -9 27 -26 21z"/>
<path d="M950 7496 c0 -9 5 -16 10 -16 6 0 10 4 10 9 0 6 -4 13 -10 16 -5 3
-10 -1 -10 -9z"/>
<path d="M699 7498 c-5 -18 -6 -38 -1 -34 7 8 12 36 6 36 -2 0 -4 -1 -5 -2z"/>
<path d="M817 7463 c3 -7 6 -13 8 -13 2 0 5 6 8 13 3 8 -1 14 -8 14 -7 0 -11
-6 -8 -14z"/>
<path d="M743 7434 c-18 -8 -33 -15 -33 -17 0 -10 56 0 63 11 13 20 6 21 -30
6z"/>
<path d="M810 7431 c0 -7 -4 -10 -8 -7 -5 3 -9 -1 -9 -9 0 -8 4 -12 8 -9 4 2
10 -2 12 -8 4 -10 6 -10 6 0 1 8 6 10 14 6 7 -5 7 -1 -3 12 -8 10 -16 21 -17
23 -2 2 -3 -1 -3 -8z"/>
<path d="M9791 7422 c-1 -7 -5 -11 -10 -7 -5 3 -13 0 -17 -7 -4 -7 -4 -10 1
-6 4 4 14 0 22 -8 12 -11 18 -12 29 -3 18 15 18 33 0 26 -8 -3 -17 -1 -20 6
-3 9 -5 8 -5 -1z m29 -18 c0 -8 -19 -13 -24 -6 -3 5 1 9 9 9 8 0 15 -2 15 -3z"/>
<path d="M9826 7382 c-3 -5 1 -9 9 -9 8 0 12 4 9 9 -3 4 -7 8 -9 8 -2 0 -6 -4
-9 -8z"/>
<path d="M770 7360 c-9 -6 -10 -10 -3 -10 6 0 15 5 18 10 8 12 4 12 -15 0z"/>
<path d="M883 7355 c-6 -6 -8 -18 -3 -24 5 -9 9 -5 13 10 7 28 6 31 -10 14z"/>
<path d="M840 7346 c0 -2 7 -9 15 -16 13 -11 14 -10 9 4 -5 14 -24 23 -24 12z"/>
<path d="M655 7320 c-3 -5 -1 -10 4 -10 6 0 11 5 11 10 0 6 -2 10 -4 10 -3 0
-8 -4 -11 -10z"/>
<path d="M9793 7275 c0 -8 4 -12 9 -9 4 3 8 9 8 15 0 5 -4 9 -8 9 -5 0 -9 -7
-9 -15z"/>
<path d="M470 7260 c-9 -6 -10 -10 -3 -10 6 0 15 5 18 10 8 12 4 12 -15 0z"/>
<path d="M483 7224 c0 -7 4 -11 8 -8 4 2 10 -2 12 -8 4 -8 6 -7 6 3 1 9 -5 19
-12 22 -8 3 -14 -1 -14 -9z"/>
<path d="M9737 7207 c-4 -10 2 -14 19 -14 13 0 24 4 24 10 0 6 -3 7 -7 4 -3
-4 -12 -2 -18 3 -9 7 -14 6 -18 -3z"/>
<path d="M9795 7200 c3 -5 8 -10 11 -10 2 0 4 5 4 10 0 6 -5 10 -11 10 -5 0
-7 -4 -4 -10z"/>
<path d="M2875 7179 c-4 -6 -5 -12 -2 -15 2 -3 7 2 10 11 7 17 1 20 -8 4z"/>
<path d="M2941 7168 c5 -10 12 -18 15 -18 3 0 2 5 -1 10 -3 6 -2 10 4 10 5 0
11 -4 13 -8 2 -4 11 0 20 10 16 16 15 17 -22 15 -34 -1 -37 -3 -29 -19z"/>
<path d="M3054 7175 c2 -7 -10 -9 -33 -7 -27 2 -32 0 -20 -7 8 -5 63 -9 122
-8 59 1 107 -1 107 -4 0 -11 -22 -14 -92 -14 -38 0 -68 -3 -68 -7 0 -7 109
-13 170 -9 14 1 34 1 45 0 11 0 55 -2 97 -2 104 -3 84 -16 -33 -23 -144 -8
-153 -9 -166 -17 -8 -5 -13 -3 -13 5 -1 9 -5 7 -14 -4 -10 -13 -15 -15 -24 -6
-8 8 -12 9 -12 1 0 -14 -82 -7 -91 8 -4 7 -9 8 -13 1 -3 -5 2 -13 11 -16 14
-6 15 -9 4 -16 -8 -4 -20 -6 -27 -3 -7 2 -22 0 -33 -6 -14 -8 -22 -8 -27 0 -4
8 -8 8 -13 1 -4 -6 -36 -13 -71 -16 -36 -2 -67 -5 -70 -6 -3 -1 -31 -2 -62 -2
-32 0 -58 -3 -58 -7 0 -3 -12 -7 -27 -8 -68 -4 -102 -9 -108 -15 -4 -4 -18 -3
-31 2 -19 8 -22 6 -17 -7 5 -13 3 -14 -15 -4 -16 8 -23 8 -29 -1 -4 -7 -17
-14 -28 -16 -22 -3 -49 -9 -52 -12 -2 -2 -11 -3 -20 -4 -10 -2 -38 -5 -63 -9
-25 -4 -65 -8 -90 -11 -25 -2 -59 -9 -77 -14 -18 -6 -40 -9 -50 -7 -10 1 -22
-1 -28 -5 -9 -7 -79 -21 -117 -23 -10 -1 -18 -6 -18 -11 0 -5 -3 -6 -7 -3 -3
4 -12 2 -20 -4 -7 -6 -13 -8 -13 -4 0 4 -7 1 -16 -6 -9 -8 -29 -15 -43 -17
-107 -12 -127 -16 -133 -25 -3 -6 -17 -12 -30 -14 -23 -3 -109 -28 -138 -40
-18 -8 -27 -10 -41 -12 -5 0 -8 -5 -5 -10 3 -4 -4 -8 -17 -7 -15 1 -22 -4 -21
-16 2 -18 -16 -20 -28 -4 -4 6 -12 5 -21 -2 -7 -7 -17 -9 -20 -5 -4 3 -7 1 -7
-6 0 -7 -5 -9 -12 -5 -9 5 -9 3 1 -9 7 -9 18 -14 25 -10 6 3 1 -4 -11 -16 -26
-24 -42 -28 -22 -5 10 13 10 17 -1 24 -9 5 -17 5 -21 -1 -3 -6 -10 -11 -15
-11 -22 -1 -32 -11 -27 -25 4 -11 2 -14 -6 -9 -6 4 -19 2 -27 -5 -9 -7 -21
-14 -28 -15 -31 -5 -42 -10 -54 -27 -7 -9 -11 -21 -7 -26 3 -6 -6 -8 -20 -5
-20 3 -27 -1 -35 -20 -5 -13 -15 -27 -22 -31 -10 -6 -11 -5 -1 6 18 18 16 25
-7 26 -13 1 -18 -2 -14 -9 5 -7 2 -9 -7 -6 -10 4 -15 -1 -16 -13 -1 -12 3 -17
9 -13 7 4 8 2 4 -4 -5 -9 -13 -9 -26 -2 -13 7 -21 7 -25 0 -3 -5 2 -10 12 -11
10 0 3 -5 -15 -10 -18 -5 -30 -14 -27 -20 4 -5 3 -9 -2 -8 -24 4 -43 -2 -37
-12 4 -8 0 -9 -15 -4 -14 4 -28 -1 -43 -16 -13 -12 -18 -19 -12 -16 7 4 14 0
18 -8 3 -8 2 -15 -2 -15 -5 0 -17 -7 -28 -16 -19 -15 -19 -15 3 -11 15 3 20 1
16 -9 -2 -7 -12 -10 -20 -7 -12 5 -15 2 -11 -14 4 -16 1 -19 -12 -16 -9 3 -24
-2 -32 -10 -10 -10 -19 -12 -31 -5 -13 7 -19 5 -23 -6 -3 -9 -11 -13 -17 -9
-6 4 -8 -2 -5 -15 4 -12 2 -20 -3 -16 -9 5 -13 -9 -10 -35 2 -7 -2 -11 -6 -8
-5 3 -14 -3 -21 -13 -10 -17 -9 -18 6 -13 10 4 5 -4 -11 -19 -16 -15 -28 -29
-27 -33 1 -4 -1 -10 -5 -13 -4 -4 -6 -2 -5 3 5 24 -1 27 -16 9 -8 -10 -13 -13
-9 -6 3 6 1 12 -6 12 -6 0 -9 -8 -6 -19 3 -15 1 -18 -11 -14 -10 4 -13 2 -8
-5 4 -7 2 -12 -5 -12 -7 0 -9 -3 -6 -7 4 -3 -2 -13 -13 -20 -11 -8 -18 -18
-15 -23 3 -4 -2 -11 -11 -14 -10 -4 -14 -14 -11 -26 3 -11 0 -18 -5 -17 -5 1
-15 -7 -21 -18 -7 -11 -14 -22 -17 -25 -3 -3 -5 -14 -5 -25 0 -26 -23 -55 -40
-49 -11 5 -29 -29 -26 -48 1 -5 -4 -8 -11 -8 -6 0 -3 -10 8 -22 10 -13 12 -17
4 -10 -8 6 -17 12 -21 12 -8 0 -24 -41 -20 -49 2 -2 -4 -8 -13 -13 -9 -5 -14
-13 -11 -19 4 -5 2 -9 -3 -9 -4 0 -23 -13 -41 -29 -22 -20 -28 -31 -19 -34 11
-4 11 -6 0 -6 -7 -1 -10 -6 -7 -12 7 -11 -6 -54 -31 -100 -7 -14 -11 -29 -7
-33 3 -3 2 -6 -3 -6 -15 0 -46 -59 -40 -75 2 -7 0 -16 -7 -19 -8 -3 -8 -5 1
-5 10 -1 9 -6 -4 -18 -12 -12 -13 -18 -4 -21 7 -3 16 1 20 8 4 7 10 8 13 3 4
-6 -5 -16 -18 -23 -14 -7 -25 -17 -25 -22 0 -5 -5 -6 -12 -2 -7 4 -8 3 -4 -5
6 -9 11 -9 21 -1 9 8 15 8 20 0 4 -6 3 -10 -2 -9 -19 5 -41 -13 -36 -28 4 -11
2 -14 -5 -9 -8 4 -10 2 -6 -8 3 -8 13 -12 22 -9 15 4 15 3 2 -6 -9 -6 -18 -7
-24 -1 -13 13 -26 12 -26 -2 0 -6 3 -9 6 -5 3 3 12 1 18 -6 10 -9 9 -15 -6
-31 -10 -11 -18 -27 -19 -35 0 -9 -2 -23 -4 -31 -11 -50 -13 -69 -7 -74 10
-11 11 -36 1 -36 -6 0 -7 -5 -4 -10 4 -6 8 -34 10 -62 2 -28 8 -54 12 -57 5
-3 9 -13 9 -21 0 -34 14 -81 23 -76 5 3 7 -3 4 -14 -4 -13 1 -27 13 -36 11 -9
13 -13 7 -9 -9 4 -11 1 -7 -10 5 -11 10 -13 19 -5 10 8 13 6 11 -7 0 -10 -5
-21 -11 -25 -5 -4 -2 -10 8 -14 9 -3 17 -12 17 -20 0 -13 16 -37 48 -70 12
-12 53 -19 66 -11 3 1 15 -7 28 -19 28 -26 58 -37 58 -22 0 7 4 7 14 -1 14
-12 43 -9 103 8 18 5 33 7 33 4 0 -3 11 2 25 11 14 9 25 13 25 10 0 -4 9 1 21
12 11 10 30 19 43 20 12 0 36 7 52 16 16 8 90 45 164 82 175 87 193 97 207
115 7 9 13 12 13 7 0 -5 9 -1 20 9 11 10 20 15 20 12 0 -8 64 18 190 75 98 45
242 98 251 92 5 -3 9 -1 9 4 0 6 7 13 16 16 10 4 13 2 8 -7 -6 -9 -5 -9 8 0 8
7 18 10 21 6 4 -3 7 -2 7 4 0 6 9 9 20 6 11 -3 27 -2 36 1 14 5 14 9 3 24 -11
14 -11 15 1 5 17 -15 44 -17 35 -3 -3 6 -1 10 4 10 6 0 11 -4 11 -8 0 -5 23
-4 50 2 28 5 50 14 50 19 0 4 4 6 8 3 4 -3 26 0 48 5 40 10 72 17 109 22 12 2
25 6 30 9 10 5 40 12 160 32 14 3 33 7 43 10 30 9 75 17 127 22 66 6 94 13
129 32 5 3 6 0 2 -6 -4 -7 -14 -12 -22 -12 -8 0 -12 -4 -9 -10 3 -5 -1 -10
-10 -10 -8 0 -18 -7 -22 -16 -5 -12 -7 -13 -14 -2 -7 11 -10 10 -21 -1 -11
-11 -11 -13 1 -6 9 5 12 4 8 -3 -4 -5 -17 -8 -29 -4 -13 3 -19 1 -15 -5 4 -6
-4 -8 -20 -5 -20 4 -24 2 -18 -9 5 -8 5 -11 0 -7 -4 4 -14 3 -22 -3 -10 -9
-13 -8 -13 2 0 8 -5 6 -13 -6 -10 -12 -16 -15 -21 -6 -5 8 -11 7 -22 -4 -9 -8
-20 -13 -25 -10 -5 4 -9 1 -9 -5 0 -6 -4 -9 -10 -5 -9 6 -15 3 -77 -29 -18 -9
-33 -14 -33 -10 0 4 -9 -1 -20 -11 -11 -10 -20 -15 -20 -11 0 3 -14 -1 -31 -9
-17 -9 -37 -14 -45 -11 -10 4 -12 2 -8 -6 5 -8 2 -9 -9 -5 -12 4 -17 1 -17
-10 0 -9 -3 -14 -6 -10 -3 3 -23 -3 -42 -14 -20 -10 -40 -19 -45 -19 -5 0 -15
-7 -24 -15 -8 -8 -19 -13 -24 -10 -5 4 -9 1 -9 -5 0 -6 -4 -9 -9 -6 -5 3 -20
-5 -33 -19 -15 -15 -33 -23 -46 -20 -12 2 -37 -7 -57 -21 -20 -13 -33 -19 -29
-12 5 7 -9 -1 -31 -19 -21 -18 -42 -30 -46 -28 -4 3 -5 -5 -2 -17 4 -19 3 -20
-6 -8 -10 14 -15 7 -12 -13 1 -4 -4 -7 -11 -6 -25 3 -39 -1 -34 -10 4 -5 0
-12 -6 -14 -7 -3 -4 -6 7 -6 16 -1 17 -3 5 -10 -8 -6 -18 -7 -22 -5 -4 3 -8 0
-8 -6 0 -6 -4 -9 -8 -6 -5 3 -15 -4 -22 -14 -11 -16 -17 -17 -29 -7 -12 10
-13 9 -6 -2 6 -11 4 -13 -8 -8 -9 3 -19 1 -23 -5 -5 -7 -2 -8 6 -3 8 5 11 4 6
-3 -4 -6 -12 -9 -19 -7 -16 6 -60 -32 -52 -45 4 -6 -7 -13 -24 -16 -25 -5 -29
-9 -20 -21 10 -11 9 -12 -5 -7 -11 4 -16 1 -16 -11 0 -9 -5 -13 -10 -10 -6 4
-7 11 -4 17 4 6 -2 6 -15 -1 -25 -14 -28 -23 -4 -14 11 4 14 3 9 -5 -4 -7 -18
-12 -31 -12 -13 0 -29 -8 -34 -17 -6 -10 -11 -15 -11 -10 0 4 -8 -1 -18 -10
-12 -12 -16 -22 -10 -30 7 -8 3 -10 -11 -6 -12 3 -21 1 -21 -6 0 -6 -9 -11
-21 -11 -11 0 -17 -4 -14 -10 3 -5 -1 -10 -10 -10 -10 0 -15 -6 -12 -13 3 -7
-3 -13 -13 -14 -26 -2 -71 -33 -64 -44 3 -5 -2 -9 -10 -9 -9 0 -25 -9 -36 -20
-11 -11 -20 -17 -20 -12 -1 4 -10 -4 -20 -17 -11 -13 -20 -20 -20 -17 0 4 -12
-8 -27 -25 -16 -16 -43 -46 -61 -66 -17 -20 -32 -40 -32 -45 0 -5 -4 -6 -10
-3 -5 3 -10 1 -10 -5 0 -6 -4 -9 -9 -5 -24 14 -92 -75 -143 -188 -7 -15 -18
-25 -24 -23 -16 6 -34 -13 -27 -30 3 -8 1 -14 -5 -14 -5 0 -13 -16 -16 -35 -4
-22 -11 -33 -18 -29 -6 4 -9 1 -6 -7 3 -8 1 -24 -3 -36 -5 -13 -4 -25 1 -28 5
-3 7 -12 4 -20 -4 -8 -11 -12 -18 -8 -6 4 -6 0 2 -9 9 -12 10 -18 2 -23 -8 -5
-7 -11 2 -23 8 -9 8 -13 2 -9 -7 4 -15 0 -18 -9 -8 -21 -8 -69 1 -61 3 4 12
-1 19 -11 16 -21 17 -32 3 -32 -5 0 -8 4 -4 9 3 5 1 12 -4 16 -6 3 -7 -6 -4
-22 3 -16 6 -43 7 -60 0 -18 3 -33 7 -33 3 0 6 -16 7 -35 1 -20 4 -40 7 -44 3
-5 7 -24 10 -42 10 -73 11 -74 39 -73 14 1 26 -3 26 -8 0 -5 -8 -8 -17 -6 -14
2 -18 -4 -19 -29 -1 -18 4 -33 10 -33 6 0 4 -5 -4 -10 -11 -7 -11 -10 -2 -10
7 0 11 -4 7 -9 -3 -5 2 -17 11 -25 9 -9 13 -23 10 -32 -3 -8 -2 -13 2 -10 4 2
8 -12 8 -32 0 -20 3 -48 6 -62 4 -14 7 -29 7 -33 1 -5 5 -6 10 -3 5 3 9 -6 10
-19 3 -48 4 -55 13 -55 4 0 8 -9 8 -20 0 -11 6 -20 14 -20 15 0 16 36 1 60 -5
8 -4 11 2 7 7 -4 10 15 8 54 -1 40 -6 64 -16 70 -10 6 -10 9 -1 9 6 0 12 7 12
16 0 13 -3 14 -14 5 -12 -10 -13 -9 -9 8 3 11 11 17 19 14 16 -6 28 -39 19
-53 -3 -5 -2 -10 2 -10 9 0 8 -126 -1 -167 -3 -13 0 -25 5 -28 5 -4 6 -12 2
-18 -4 -7 0 -6 10 2 9 7 23 11 31 8 11 -4 13 -1 9 10 -4 11 -2 14 5 9 7 -4 12
-18 12 -31 0 -13 8 -29 18 -35 15 -10 15 -10 -4 -5 -19 5 -20 2 -14 -45 5 -40
4 -47 -7 -38 -7 6 -13 8 -13 4 0 -3 12 -13 26 -23 25 -16 27 -16 40 2 10 14
14 15 14 4 0 -12 2 -12 11 1 9 13 10 13 6 -1 -3 -9 0 -22 6 -29 9 -10 9 -11
-3 -5 -13 8 -13 6 -2 -8 8 -9 11 -21 7 -28 -5 -8 -1 -9 14 -4 17 5 20 3 14
-11 -4 -11 -2 -15 6 -13 7 3 39 -22 72 -54 34 -32 63 -56 65 -54 3 2 20 -11
39 -30 19 -19 39 -32 45 -28 9 6 14 -8 11 -28 -1 -5 3 -6 9 -2 5 3 10 2 10 -3
0 -4 16 -14 35 -22 19 -8 35 -17 35 -22 0 -4 9 -8 20 -8 11 0 20 -5 20 -11 0
-6 7 -8 16 -5 8 3 12 2 9 -4 -3 -6 -2 -10 4 -10 6 0 20 -10 32 -22 19 -20 21
-20 15 -4 -6 16 -4 17 10 6 13 -12 17 -11 25 1 5 8 9 9 9 3 0 -6 29 -11 75
-11 41 0 75 4 75 9 0 11 119 3 155 -12 17 -6 50 -14 75 -16 53 -5 105 -12 105
-14 0 -1 18 -4 39 -6 21 -1 44 -8 49 -13 8 -8 17 -5 31 7 11 9 16 11 11 3 -5
-9 -3 -12 6 -9 8 3 13 12 11 19 -2 8 0 10 5 6 4 -5 8 -16 8 -25 0 -13 9 -17
37 -18 21 0 40 -3 44 -7 4 -4 13 -2 21 4 10 9 13 8 13 0 0 -7 4 -10 9 -6 5 3
12 1 15 -4 4 -5 17 -8 31 -7 13 2 22 -1 19 -6 -4 -5 2 -8 12 -7 11 2 25 0 32
-4 7 -5 12 -3 12 4 0 8 5 7 17 -2 20 -17 16 -17 37 0 13 11 16 11 14 2 -2 -8
5 -15 15 -16 15 -3 16 -1 5 13 -11 15 -10 14 8 -1 23 -19 39 -23 29 -7 -9 15
4 12 20 -4 8 -8 28 -13 44 -12 16 1 28 -2 25 -6 -4 -7 10 -12 19 -6 1 1 11 -4
23 -10 11 -6 45 -14 75 -17 30 -4 65 -9 79 -12 14 -2 41 -5 60 -6 19 -1 39 -6
43 -12 5 -6 7 -4 4 5 -2 10 -17 15 -45 15 -22 0 -47 6 -54 13 -6 6 -8 12 -4
12 5 0 3 7 -4 15 -7 8 -8 15 -3 15 5 0 16 -11 23 -25 17 -31 33 -33 26 -2 -3
12 -3 16 0 9 3 -6 11 -9 16 -6 7 4 8 2 4 -4 -4 -8 0 -12 12 -12 24 0 64 -38
56 -53 -4 -7 -4 -9 1 -5 4 4 17 2 29 -4 20 -11 20 -10 6 7 -14 17 -13 18 3 12
11 -4 17 -2 17 8 0 18 12 19 28 3 14 -14 44 -20 36 -7 -3 5 -10 6 -16 3 -6 -4
-8 -2 -5 3 4 6 23 10 42 8 24 -1 39 3 45 14 5 9 10 11 10 5 0 -14 -25 -36 -32
-29 -2 3 -5 -1 -5 -8 0 -7 8 -13 18 -13 10 0 16 3 14 6 -2 3 8 10 21 17 16 7
22 8 17 0 -4 -6 0 -8 10 -4 10 4 17 0 20 -11 4 -15 5 -14 6 2 1 15 4 16 16 6
13 -10 19 -10 35 5 19 18 20 17 20 -6 0 -13 4 -19 8 -14 10 14 32 17 32 4 0
-6 9 -8 20 -4 11 3 20 3 20 -2 0 -12 50 -8 85 6 25 10 31 10 42 -5 7 -10 13
-13 13 -7 0 6 11 10 25 8 14 -1 28 2 31 6 3 5 13 5 23 -1 10 -5 21 -7 25 -3 3
3 34 7 68 8 79 2 81 3 73 15 -3 5 -1 10 4 10 6 0 11 -4 11 -10 0 -5 9 -10 20
-10 11 0 20 -4 20 -9 0 -5 -10 -7 -22 -4 -19 4 -17 2 6 -11 27 -15 30 -15 57
8 15 13 25 27 22 30 -4 3 -1 6 5 6 15 0 16 -17 2 -25 -6 -4 -8 -11 -5 -16 3
-5 -1 -6 -9 -3 -9 4 -16 1 -16 -6 0 -10 19 -11 78 -6 143 12 207 16 292 20 47
2 85 5 85 6 0 1 19 2 43 3 23 1 42 -2 42 -7 0 -4 11 -1 24 8 16 10 27 12 31 6
4 -6 10 -8 15 -5 5 3 21 0 36 -5 25 -10 26 -9 13 6 -13 16 -12 16 6 7 11 -5
26 -8 33 -7 6 1 17 2 23 3 5 0 7 6 4 11 -3 6 -2 10 4 10 5 0 12 -6 14 -12 3
-8 6 -6 6 4 1 10 4 17 9 17 4 -1 9 0 12 1 19 7 39 7 34 -1 -3 -5 -10 -7 -15
-4 -5 4 -6 -2 -2 -11 4 -12 8 -14 11 -6 3 10 7 10 18 1 8 -6 11 -16 7 -22 -4
-6 -1 -7 6 -2 9 5 10 10 2 18 -6 6 -11 14 -11 18 0 10 54 -3 62 -15 5 -7 8 -7
8 -1 0 6 9 11 20 12 11 1 18 -2 15 -8 -4 -5 -1 -9 4 -9 6 0 11 5 11 10 0 6 7
10 16 10 8 0 13 -4 10 -9 -3 -5 1 -11 9 -14 9 -4 12 -1 8 9 -3 7 0 14 6 14 6
0 11 -5 11 -11 0 -8 6 -7 17 2 9 8 14 9 10 3 -9 -15 19 -38 38 -31 8 4 21 -1
30 -9 8 -9 15 -11 15 -5 0 5 9 9 20 8 12 -1 18 -7 16 -14 -3 -7 1 -10 9 -6 8
3 13 8 10 12 -2 4 4 8 13 8 21 0 43 -22 34 -33 -4 -5 1 -2 11 5 15 12 17 11
17 -3 0 -10 5 -14 10 -11 6 4 17 2 25 -5 10 -9 16 -7 25 7 10 16 11 16 7 -3
-3 -16 0 -21 12 -19 9 2 18 4 21 4 3 1 -2 6 -10 12 -13 9 -13 10 0 6 8 -2 14
-11 13 -19 -2 -11 8 -14 42 -13 24 1 42 -2 39 -7 -8 -13 10 -10 25 4 10 11 11
10 6 -2 -4 -11 2 -15 20 -16 14 -1 23 1 20 5 -2 4 3 8 11 8 8 0 13 -6 10 -13
-6 -15 25 -7 36 10 4 6 8 0 8 -14 0 -18 3 -21 9 -12 6 11 10 10 15 -4 6 -16 8
-16 21 2 9 10 15 15 14 9 -3 -25 3 -30 38 -32 20 -1 39 -7 43 -13 4 -6 18 -13
31 -15 60 -9 94 -17 99 -23 3 -4 14 -8 25 -10 11 -2 63 -17 115 -33 52 -16
102 -29 112 -29 10 0 18 -5 18 -11 0 -5 4 -8 9 -5 4 3 17 -1 27 -9 10 -8 31
-15 46 -15 14 0 28 -4 30 -9 2 -6 14 -12 28 -14 14 -2 33 -7 43 -10 9 -4 25
-10 35 -14 9 -3 20 -5 25 -5 4 1 7 -5 7 -13 0 -8 5 -15 10 -15 6 0 10 5 10 12
0 7 5 5 13 -4 10 -14 63 -34 102 -39 6 0 19 -6 30 -12 11 -6 31 -12 44 -14 13
-1 33 -11 45 -21 11 -11 26 -18 33 -15 6 2 21 -4 32 -14 12 -9 33 -18 48 -18
16 0 34 -4 41 -9 7 -4 16 -5 19 -2 3 3 19 -2 35 -10 16 -9 43 -16 58 -16 16
-1 27 -4 25 -8 -2 -3 9 -11 26 -17 21 -8 27 -8 22 0 -4 7 0 8 13 3 10 -5 24
-9 31 -9 7 0 12 -3 11 -6 -2 -25 5 -39 23 -44 13 -3 19 -1 16 6 -3 7 -9 11
-14 10 -5 -1 -10 5 -10 13 0 10 9 6 29 -13 15 -15 28 -23 28 -19 0 5 6 3 14
-3 11 -9 20 -9 35 -2 12 7 22 7 26 2 3 -5 -3 -12 -12 -15 -10 -3 -1 -4 19 -3
20 2 35 0 32 -4 -2 -4 0 -10 6 -14 5 -3 10 2 10 12 0 12 3 14 8 6 8 -13 9 -13
134 -16 47 -1 90 -5 94 -9 4 -5 18 -8 31 -8 13 0 23 -5 23 -12 0 -6 3 -8 7 -5
3 4 12 2 20 -4 7 -6 13 -8 13 -4 0 4 7 2 15 -5 8 -6 19 -9 25 -5 5 3 10 1 10
-5 0 -7 7 -9 16 -6 8 3 26 -1 39 -10 14 -9 32 -13 42 -10 9 4 19 2 23 -3 3 -6
24 -12 47 -13 23 -2 39 -6 36 -10 -3 -7 8 -11 20 -7 1 0 15 -4 30 -10 22 -9
26 -8 20 2 -4 6 5 4 19 -5 16 -11 28 -13 30 -7 2 7 21 4 53 -8 63 -23 162 -23
230 2 28 10 65 17 83 16 24 -1 32 2 32 16 0 15 1 15 13 -2 10 -13 16 -15 21
-6 4 6 2 18 -4 26 -7 8 -9 15 -6 15 10 0 32 -23 39 -40 4 -11 6 -11 6 -2 1 7
5 11 10 7 5 -3 12 -1 16 5 3 5 1 11 -4 11 -6 1 -15 2 -20 3 -5 0 -13 5 -18 10
-5 5 -3 6 5 2 6 -4 12 -3 12 3 0 6 7 7 17 4 11 -4 14 -3 9 5 -4 7 -2 12 4 12
6 0 10 -7 8 -16 -4 -25 19 -28 32 -5 8 16 8 20 -2 17 -7 -1 -10 -1 -5 1 4 3 7
13 7 24 0 12 7 19 19 19 11 0 23 5 26 10 3 5 13 10 22 10 9 0 26 8 37 17 20
17 20 17 7 1 -7 -10 -10 -18 -5 -18 15 0 32 15 36 30 5 22 27 42 38 35 5 -3
10 -1 10 4 0 6 7 11 15 11 20 0 20 49 -1 57 -13 5 -13 7 -2 14 10 7 10 9 1 9
-7 0 -13 11 -13 25 0 14 5 25 11 25 5 0 7 5 3 12 -5 8 -2 9 9 5 9 -3 19 -2 22
3 3 4 -1 11 -7 13 -8 3 -6 6 5 6 9 1 18 0 20 -1 6 -4 47 24 43 30 -2 4 4 9 15
10 43 4 49 6 49 14 0 5 4 7 10 3 9 -6 15 -3 77 29 17 9 38 16 46 16 9 0 19 5
23 12 5 7 3 8 -6 3 -8 -5 -11 -4 -7 3 4 5 15 9 25 7 18 -3 72 24 72 37 0 4 12
18 26 31 19 18 23 27 14 32 -9 6 -11 4 -5 -5 5 -9 4 -11 -4 -6 -9 6 -9 11 0
22 6 8 8 14 3 14 -5 0 2 7 14 16 12 8 20 20 17 25 -4 5 -1 9 4 9 6 0 11 -4 11
-10 0 -5 5 -10 11 -10 5 0 7 6 3 13 -6 9 -4 9 8 -1 14 -11 17 -8 26 18 6 16 8
30 4 30 -14 0 54 37 80 43 24 6 26 11 24 51 -1 32 1 43 11 39 24 -10 13 14
-12 25 -31 14 -38 15 -31 3 11 -18 -27 -21 -40 -4 -11 15 -13 15 -14 3 0 -12
-2 -12 -9 -2 -4 8 -11 13 -15 13 -29 -4 -46 1 -46 15 0 8 -4 12 -10 9 -9 -6
-14 7 -11 27 0 4 -11 11 -25 14 -21 5 -23 8 -11 15 8 5 14 17 13 26 -4 25 18
43 53 43 41 0 83 20 77 37 -3 8 -2 12 3 8 5 -3 18 6 29 20 11 14 29 25 40 25
21 0 44 18 60 45 6 12 28 20 64 24 15 2 19 42 4 56 -19 19 -196 56 -196 41 0
-8 -3 -8 -8 0 -6 9 -67 30 -67 23 0 -1 -10 3 -23 10 -22 12 -23 11 -13 -8 10
-17 9 -20 -4 -15 -8 4 -15 14 -15 25 0 21 -35 43 -55 35 -8 -3 -17 -1 -20 4
-3 5 -12 7 -19 4 -7 -3 -33 2 -57 10 -24 8 -60 18 -79 21 -19 3 -50 13 -68 21
-18 8 -37 12 -42 9 -6 -3 -10 -2 -10 4 0 6 -7 8 -15 5 -8 -3 -34 3 -57 15 -24
11 -59 23 -78 25 -19 3 -60 14 -90 26 -30 11 -64 20 -75 20 -11 0 -39 7 -63
15 -24 9 -47 13 -51 10 -5 -2 -29 6 -54 19 -25 14 -48 22 -51 19 -3 -4 -6 -2
-6 4 0 5 -21 11 -46 11 -25 1 -62 10 -82 19 -20 9 -45 15 -55 14 -11 -2 -21 5
-24 18 -3 14 -17 22 -46 27 -44 8 -52 10 -64 14 -5 1 -12 3 -18 4 -48 9 -92
20 -100 24 -5 3 -16 7 -25 8 -8 1 -24 5 -35 8 -93 26 -37 39 -1157 -271
l-1063 -295 -1055 292 c-580 161 -1058 295 -1062 299 -5 4 -149 1560 -148
1604 0 4 231 7 514 7 l514 0 6 -72 c39 -449 68 -744 74 -749 4 -3 263 -74 577
-159 551 -148 572 -152 615 -141 25 7 47 16 48 22 2 5 8 7 13 3 13 -7 50 6 44
16 -3 4 2 10 10 13 9 4 12 1 8 -9 -5 -14 -2 -14 30 -1 19 9 38 13 41 10 2 -3
10 -1 17 3 7 4 22 9 34 10 28 4 866 232 872 237 3 4 122 1292 123 1335 0 9
-365 12 -1794 12 l-1793 0 -8 63 c-3 34 -9 89 -11 122 -3 33 -21 233 -39 445
-19 211 -35 388 -35 392 0 5 848 8 1885 8 1037 0 1885 3 1885 8 1 4 22 242 48
530 26 288 46 525 43 527 -2 3 -745 5 -1651 5 -1443 0 -1647 -2 -1647 -15 0
-11 9 -13 34 -10 18 2 33 1 33 -4 0 -4 17 -8 38 -8 20 0 62 -2 92 -3 54 -3 54
-3 15 -9 -22 -3 -61 -3 -87 0 -28 3 -52 1 -58 -5 -8 -8 -14 -6 -20 4 -8 12
-11 13 -19 1 -6 -10 -10 -10 -16 -1 -4 6 -13 9 -21 6 -16 -6 -19 10 -4 19 6 4
8 11 4 16 -4 6 -10 6 -18 0 -7 -6 -16 -7 -20 -3 -10 10 -76 10 -70 0 3 -4 0
-8 -5 -8 -6 0 -11 6 -11 13 0 8 -3 8 -8 1 -11 -17 -41 -24 -48 -12 -4 6 -3 8
2 5 6 -3 16 -1 24 4 11 6 6 8 -18 7 -18 -1 -31 -7 -28 -13z m514 -50 c0 -14
-4 -25 -7 -25 -12 0 -47 29 -35 30 5 0 15 -5 21 -11 9 -9 10 -7 6 10 -3 11 -1
21 5 21 5 0 10 -11 10 -25z m49 5 c-1 -19 -26 -27 -41 -13 -5 5 26 30 41 33 1
0 1 -9 0 -20z m98 7 c17 1 41 4 55 6 14 2 34 0 45 -4 11 -3 32 -3 47 2 15 4
30 4 32 0 3 -4 -13 -12 -35 -18 -22 -6 -41 -7 -44 -4 -3 7 -51 6 -143 -2 -24
-2 -45 0 -48 4 -7 12 29 28 46 20 8 -4 29 -6 45 -4z m210 4 c3 -5 2 -12 -3
-15 -5 -3 -9 1 -9 9 0 17 3 19 12 6z m-420 -21 c-3 -5 -14 -10 -23 -9 -14 0
-13 2 3 9 27 11 27 11 20 0z m-2206 -483 c0 -9 -2 -8 -6 1 -2 6 -10 9 -15 6
-7 -4 -8 -2 -4 5 9 13 26 5 25 -12z m-409 -251 c0 -3 -4 -8 -10 -11 -5 -3 -10
-1 -10 4 0 6 5 11 10 11 6 0 10 -2 10 -4z m-160 -182 c0 -8 -19 -13 -24 -6 -3
5 1 9 9 9 8 0 15 -2 15 -3z m-246 -363 c-9 -9 -34 -9 -34 -1 0 5 9 8 20 7 10
-1 17 -3 14 -6z m-114 -115 c0 -3 -4 -8 -10 -11 -5 -3 -10 -1 -10 4 0 6 5 11
10 11 6 0 10 -2 10 -4z m-20 -40 c0 -3 -4 -8 -10 -11 -5 -3 -10 -1 -10 4 0 6
5 11 10 11 6 0 10 -2 10 -4z m-47 -59 c8 5 8 2 0 -9 -7 -8 -10 -18 -6 -22 4
-4 -1 -4 -11 0 -14 5 -15 9 -4 15 10 7 11 9 0 9 -8 0 -10 5 -6 12 6 9 9 9 12
0 2 -7 9 -9 15 -5z m-133 -381 c0 -2 -7 -9 -15 -16 -13 -11 -14 -10 -9 4 5 14
24 23 24 12z m2431 -50 c8 5 9 3 5 -5 -5 -7 -14 -10 -21 -7 -7 2 -16 2 -19 -2
-11 -11 -46 -12 -46 -1 0 5 4 8 9 4 6 -3 16 1 23 9 9 9 17 11 25 4 7 -5 18 -6
24 -2z m62 7 c3 -5 -6 -9 -20 -10 -19 -1 -22 1 -12 8 17 11 26 11 32 2z
m-2023 -1197 c0 -2 -8 -10 -17 -17 -16 -13 -17 -12 -4 4 13 16 21 21 21 13z
m-205 -466 c3 -5 1 -10 -4 -10 -6 0 -11 5 -11 10 0 6 2 10 4 10 3 0 8 -4 11
-10z m4754 -53 c-2 -2 -11 -8 -20 -15 -12 -9 -16 -9 -16 1 0 7 9 14 20 14 11
1 18 1 16 0z m-4719 -31 c0 -3 -4 -8 -10 -11 -5 -3 -10 -1 -10 4 0 6 5 11 10
11 6 0 10 -2 10 -4z m-2 -38 c-2 -7 3 -12 11 -10 12 3 12 0 2 -12 -7 -8 -10
-21 -6 -28 4 -7 -2 -2 -13 11 -11 14 -18 31 -15 38 7 17 24 17 21 1z m77 -170
c-1 -13 -3 -29 -4 -35 0 -7 -9 -13 -18 -13 -13 0 -15 2 -5 8 7 5 10 16 7 24
-4 9 -1 19 4 23 6 3 8 11 5 17 -4 6 -3 8 3 5 6 -4 9 -17 8 -29z m-19 -124 c1
-9 0 -13 -4 -10 -3 4 -7 14 -8 22 -1 9 0 13 4 10 3 -4 7 -14 8 -22z m27 -64
c-3 -20 -1 -30 6 -30 7 0 11 7 9 16 -2 10 3 19 11 22 10 3 12 0 8 -12 -4 -9
-1 -16 6 -16 7 -1 1 -7 -13 -15 -23 -12 -26 -12 -37 8 -8 15 -8 26 -1 34 5 7
6 18 2 24 -4 8 -3 9 4 5 7 -4 9 -19 5 -36z m178 -389 c-9 -6 -10 -11 -2 -15
17 -11 13 -26 -6 -25 -13 0 -14 2 -4 6 10 4 11 7 1 13 -14 9 -5 30 13 30 8 0
8 -3 -2 -9z m79 -117 c0 -8 -5 -12 -10 -9 -6 4 -8 11 -5 16 9 14 15 11 15 -7z
m1000 -384 c0 -5 -2 -10 -4 -10 -3 0 -8 5 -11 10 -3 6 -1 10 4 10 6 0 11 -4
11 -10z m50 0 c-19 -13 -30 -13 -30 0 0 6 10 10 23 10 18 0 19 -2 7 -10z m34
-5 c-4 -8 -11 -15 -16 -15 -6 0 -5 6 2 15 7 8 14 15 16 15 2 0 1 -7 -2 -15z
m596 -101 c0 -8 -19 -13 -24 -6 -3 5 1 9 9 9 8 0 15 -2 15 -3z m80 2 c0 -2 -7
-7 -16 -10 -8 -3 -12 -2 -9 4 6 10 25 14 25 6z m760 -60 c0 -3 -4 -8 -10 -11
-5 -3 -10 -1 -10 4 0 6 5 11 10 11 6 0 10 -2 10 -4z m1355 -6 c3 -5 1 -10 -4
-10 -6 0 -11 5 -11 10 0 6 2 10 4 10 3 0 8 -4 11 -10z m224 -53 c0 -9 -2 -8
-6 1 -2 6 -10 9 -15 6 -7 -4 -8 -2 -4 5 9 13 26 5 25 -12z m1789 -592 c-3 -3
-9 2 -12 12 -6 14 -5 15 5 6 7 -7 10 -15 7 -18z"/>
<path d="M2953 7125 c-14 -10 -13 -12 8 -9 13 1 24 3 24 4 0 1 10 3 23 4 12 2
22 -1 22 -5 0 -5 7 -6 15 -2 9 3 13 8 10 12 -11 11 -85 8 -102 -4z"/>
<path d="M9517 7103 c-3 -5 3 -14 13 -21 14 -9 21 -9 26 0 4 6 3 8 -4 4 -6 -3
-15 1 -20 10 -5 9 -12 12 -15 7z"/>
<path d="M9570 7086 c0 -18 14 -28 24 -18 4 4 15 7 23 7 9 0 17 6 19 13 1 7 0
8 -3 2 -2 -5 -9 -7 -14 -4 -6 3 -17 0 -26 -8 -15 -11 -16 -11 -10 5 3 9 2 17
-3 17 -6 0 -10 -6 -10 -14z"/>
<path d="M9713 7085 c0 -8 4 -12 9 -9 5 3 6 10 3 15 -9 13 -12 11 -12 -6z"/>
<path d="M9786 7085 c4 -8 11 -15 16 -15 6 0 5 6 -2 15 -7 8 -14 15 -16 15 -2
0 -1 -7 2 -15z"/>
<path d="M2613 7077 c-2 -4 -8 -5 -13 -2 -5 3 -11 1 -14 -4 -6 -10 11 -10 29
0 6 3 20 4 33 3 12 0 22 2 22 6 0 10 -50 7 -57 -3z"/>
<path d="M2976 7082 c-3 -5 1 -9 9 -9 8 0 12 4 9 9 -3 4 -7 8 -9 8 -2 0 -6 -4
-9 -8z"/>
<path d="M9587 6989 c7 -7 15 -10 18 -7 3 3 -2 9 -12 12 -14 6 -15 5 -6 -5z"/>
<path d="M9590 6809 c0 -5 5 -7 10 -4 6 3 10 8 10 11 0 2 -4 4 -10 4 -5 0 -10
-5 -10 -11z"/>
<path d="M9085 6690 c-11 -4 -28 -6 -37 -4 -10 1 -18 -2 -18 -7 0 -5 5 -9 11
-9 5 0 7 -6 3 -12 -5 -9 -2 -9 9 1 9 7 17 10 17 6 0 -4 6 -2 14 4 11 9 15 9
19 -1 4 -10 6 -10 6 1 1 11 4 11 16 1 13 -11 14 -10 9 3 -7 20 -24 26 -49 17z"/>
<path d="M8917 6677 c-3 -8 1 -14 8 -14 7 0 11 6 8 14 -3 7 -6 13 -8 13 -2 0
-5 -6 -8 -13z"/>
<path d="M9275 6670 c-3 -5 -12 -7 -19 -4 -8 3 -17 0 -21 -5 -3 -6 -11 -8 -17
-5 -7 4 -8 2 -4 -5 6 -9 11 -9 21 -1 8 7 19 9 24 6 5 -4 13 -2 16 4 5 8 12 7
23 -2 15 -12 16 -11 3 5 -16 20 -18 20 -26 7z"/>
<path d="M8604 6645 c0 -14 4 -25 8 -25 4 0 8 5 8 11 0 5 4 8 9 5 5 -3 14 1
20 8 10 12 9 14 -6 11 -10 -1 -23 1 -28 6 -7 5 -11 -1 -11 -16z"/>
<path d="M8656 6633 c-11 -14 -13 -23 -6 -18 10 6 12 4 7 -8 -3 -10 -2 -17 3
-17 6 0 10 6 11 13 0 6 2 22 5 35 5 28 3 27 -20 -5z"/>
<path d="M8755 6640 c-3 -5 -1 -10 4 -10 6 0 11 5 11 10 0 6 -2 10 -4 10 -3 0
-8 -4 -11 -10z"/>
<path d="M8691 6633 c-1 -17 16 -25 25 -12 4 7 3 9 -4 5 -5 -3 -13 0 -15 6 -4
9 -6 10 -6 1z"/>
<path d="M8750 6616 c0 -2 8 -10 18 -17 15 -13 16 -12 3 4 -13 16 -21 21 -21
13z"/>
<path d="M1106 6578 c3 -4 11 -5 19 -1 21 7 19 12 -4 10 -11 0 -18 -5 -15 -9z"/>
<path d="M8275 6580 c3 -5 8 -10 11 -10 2 0 4 5 4 10 0 6 -5 10 -11 10 -5 0
-7 -4 -4 -10z"/>
<path d="M8471 6576 c-8 -9 -4 -12 14 -12 27 0 33 11 11 19 -8 3 -19 0 -25 -7z"/>
<path d="M8166 6568 c5 -7 0 -9 -14 -6 -12 4 -25 2 -28 -3 -3 -5 1 -10 8 -10
39 -4 70 14 43 25 -10 4 -14 2 -9 -6z"/>
<path d="M8316 6571 c-4 -5 -2 -12 3 -15 5 -4 12 -2 15 3 4 5 2 12 -3 15 -5 4
-12 2 -15 -3z"/>
<path d="M8250 6560 c0 -5 5 -10 10 -10 6 0 10 5 10 10 0 6 -4 10 -10 10 -5 0
-10 -4 -10 -10z"/>
<path d="M8670 6558 c0 -4 4 -8 9 -8 6 0 12 4 15 8 3 5 -1 9 -9 9 -8 0 -15 -4
-15 -9z"/>
<path d="M8110 6532 c0 -5 7 -9 15 -9 8 0 15 4 15 9 0 4 -7 8 -15 8 -8 0 -15
-4 -15 -8z"/>
<path d="M8154 6529 c-4 -7 -3 -9 4 -5 6 3 15 -2 21 -11 6 -10 11 -13 11 -7 0
20 -27 37 -36 23z"/>
<path d="M8515 6529 c-4 -6 -5 -12 -2 -15 2 -3 7 2 10 11 7 17 1 20 -8 4z"/>
<path d="M8386 6503 c-6 -14 -5 -15 5 -6 7 7 10 15 7 18 -3 3 -9 -2 -12 -12z"/>
<path d="M8460 6516 c0 -2 7 -7 16 -10 8 -3 12 -2 9 4 -6 10 -25 14 -25 6z"/>
<path d="M8115 6500 c28 -12 37 -12 30 0 -3 6 -16 10 -28 9 -21 0 -21 -1 -2
-9z"/>
<path d="M8430 6499 c0 -5 5 -7 10 -4 6 3 10 8 10 11 0 2 -4 4 -10 4 -5 0 -10
-5 -10 -11z"/>
<path d="M8286 6491 c-17 -6 -17 -8 -4 -14 10 -3 19 0 22 9 3 8 4 14 3 13 -1
0 -11 -4 -21 -8z"/>
<path d="M8456 6482 c-3 -4 4 -9 15 -9 23 -2 25 3 4 10 -8 4 -16 3 -19 -1z"/>
<path d="M8535 6441 c-3 -5 -2 -12 3 -15 5 -3 9 1 9 9 0 17 -3 19 -12 6z"/>
<path d="M8709 6413 c-13 -16 -12 -17 4 -4 9 7 17 15 17 17 0 8 -8 3 -21 -13z"/>
<path d="M8500 6395 c7 -8 17 -15 22 -15 5 0 3 7 -6 15 -8 8 -18 15 -22 15 -3
0 -1 -7 6 -15z"/>
<path d="M8705 6360 c11 -14 21 -27 22 -29 1 -2 1 6 0 17 0 12 -3 19 -6 17 -2
-3 -11 1 -20 7 -10 8 -8 3 4 -12z"/>
<path d="M8913 6325 c0 -8 4 -12 9 -9 5 3 6 10 3 15 -9 13 -12 11 -12 -6z"/>
<path d="M8955 6310 c-4 -6 -10 -8 -15 -5 -5 3 -12 0 -16 -6 -4 -8 -3 -9 4 -5
7 4 12 1 12 -6 0 -8 5 -6 11 5 6 9 15 14 21 11 7 -4 8 -2 4 4 -9 15 -13 15
-21 2z"/>
<path d="M775 6300 c-3 -6 1 -7 9 -4 18 7 21 14 7 14 -6 0 -13 -4 -16 -10z"/>
<path d="M9166 6113 c3 -13 -1 -23 -7 -23 -20 0 -3 -11 25 -16 21 -3 26 -1 26
16 0 12 7 20 18 20 15 1 15 2 -3 12 -11 6 -29 12 -41 13 -17 0 -21 -4 -18 -22z
m36 -8 c-8 -16 -9 -16 -15 -1 -4 10 -3 15 3 11 6 -3 10 -1 10 6 0 7 3 10 6 6
3 -3 2 -13 -4 -22z"/>
<path d="M9275 6100 c-3 -5 -1 -10 4 -10 6 0 11 5 11 10 0 6 -2 10 -4 10 -3 0
-8 -4 -11 -10z"/>
<path d="M9230 6090 c-8 -5 -10 -10 -5 -10 6 0 17 5 25 10 8 5 11 10 5 10 -5
0 -17 -5 -25 -10z"/>
<path d="M9307 5925 c-11 -7 -13 -16 -6 -26 8 -13 13 -5 10 15 -1 5 7 6 19 3
12 -3 20 0 20 7 0 16 -22 16 -43 1z"/>
<path d="M9379 5933 c-1 -5 -1 -11 0 -15 1 -7 -23 -12 -42 -9 -5 1 -7 -3 -5
-9 2 -7 6 -10 9 -8 3 2 14 -4 25 -12 18 -14 18 -14 4 4 -14 18 -13 19 2 13 19
-7 34 8 18 18 -6 4 -8 11 -5 16 4 5 4 9 1 9 -3 0 -7 -3 -7 -7z"/>
<path d="M9446 5915 c-11 -8 -15 -15 -9 -15 7 0 15 5 18 10 4 6 11 7 17 4 7
-4 8 -2 4 4 -9 14 -7 15 -30 -3z"/>
<path d="M9410 5901 c0 -6 4 -13 10 -16 6 -3 7 1 4 9 -7 18 -14 21 -14 7z"/>
<path d="M416 5864 c-9 -23 -2 -28 13 -10 7 8 8 17 3 20 -6 3 -13 -1 -16 -10z"/>
<path d="M9436 5851 c-3 -4 -18 -6 -32 -3 -19 3 -25 1 -20 -7 4 -6 12 -9 17
-5 5 3 18 0 27 -7 9 -7 14 -9 10 -5 -4 5 -3 15 3 23 6 7 9 13 6 13 -3 0 -8 -4
-11 -9z"/>
<path d="M9458 5842 c-4 -12 -2 -20 3 -16 9 5 13 -8 10 -36 -1 -10 2 -9 10 4
11 18 13 18 24 2 8 -11 15 -13 20 -7 3 6 1 11 -6 11 -8 0 -8 5 2 18 11 14 11
15 0 5 -17 -15 -41 -6 -50 20 -8 20 -8 20 -13 -1z"/>
<path d="M9321 5634 c0 -11 3 -14 6 -6 3 7 2 16 -1 19 -3 4 -6 -2 -5 -13z"/>
<path d="M9424 5590 c0 -14 4 -16 17 -10 9 5 18 8 20 7 2 -1 3 0 1 3 -2 3 -7
5 -10 5 -4 0 -12 3 -17 7 -6 4 -11 -2 -11 -12z"/>
<path d="M9535 5519 c-4 -6 -5 -12 -2 -15 2 -3 7 2 10 11 7 17 1 20 -8 4z"/>
<path d="M9422 5486 c-21 -27 -23 -36 -7 -36 11 0 15 5 12 14 -4 9 0 13 11 11
9 -1 23 2 30 8 16 13 15 1 -3 -27 -13 -19 -13 -23 -1 -23 8 0 12 6 9 13 -2 6
6 19 19 28 15 11 18 16 8 17 -8 1 -27 2 -43 3 -15 2 -31 -2 -35 -8z"/>
<path d="M9375 5450 c-5 -8 -10 -21 -12 -29 -1 -11 2 -11 14 2 8 8 13 21 11
28 -3 10 -6 10 -13 -1z"/>
<path d="M9403 5342 c-7 -4 -9 -13 -4 -21 6 -9 10 -7 14 8 3 12 4 21 4 21 -1
0 -7 -4 -14 -8z"/>
<path d="M9616 5333 c-6 -14 -5 -15 5 -6 7 7 10 15 7 18 -3 3 -9 -2 -12 -12z"/>
<path d="M9355 5323 c2 -10 4 -20 4 -23 1 -3 5 2 10 10 10 15 6 30 -9 30 -4 0
-7 -8 -5 -17z"/>
<path d="M9419 5293 c-13 -16 -12 -17 4 -4 9 7 17 15 17 17 0 8 -8 3 -21 -13z"/>
<path d="M9194 5243 c-4 -10 -8 -21 -8 -26 -1 -4 -14 -23 -29 -43 -16 -19 -26
-38 -23 -41 3 -4 6 -1 6 5 0 6 7 9 15 6 11 -5 14 -1 9 12 -5 17 -4 17 12 -1
13 -16 16 -17 11 -3 -4 11 0 21 11 27 12 7 13 10 3 11 -10 0 -11 3 -2 13 6 8
8 17 4 20 -3 4 -1 7 5 7 6 0 14 -4 17 -10 3 -5 1 -10 -5 -10 -6 0 -9 -4 -5 -9
3 -6 14 -8 25 -6 11 2 24 -3 29 -12 8 -15 12 -14 36 5 15 12 23 22 17 22 -6 0
-13 -4 -16 -9 -10 -16 -45 -1 -39 17 4 9 2 13 -4 9 -6 -4 -18 2 -28 13 -22 25
-31 25 -41 3z m55 -37 c-2 -2 -13 8 -23 22 l-19 27 24 -22 c12 -12 21 -24 18
-27z"/>
<path d="M95 5169 c-4 -6 -5 -12 -2 -15 2 -3 7 2 10 11 7 17 1 20 -8 4z"/>
<path d="M9197 5135 c-4 -8 -3 -16 1 -19 4 -3 9 4 9 15 2 23 -3 25 -10 4z"/>
<path d="M9100 5079 c0 -5 5 -7 10 -4 6 3 10 8 10 11 0 2 -4 4 -10 4 -5 0 -10
-5 -10 -11z"/>
<path d="M9170 5060 c-9 -6 -10 -10 -3 -10 6 0 15 5 18 10 8 12 4 12 -15 0z"/>
<path d="M9129 5043 c-13 -16 -12 -17 4 -4 9 7 17 15 17 17 0 8 -8 3 -21 -13z"/>
<path d="M9133 4977 c-1 -30 -1 -31 9 -9 7 14 8 26 2 32 -5 5 -10 -4 -11 -23z"/>
<path d="M9235 4921 c-3 -5 -2 -12 3 -15 5 -3 9 1 9 9 0 17 -3 19 -12 6z"/>
<path d="M9267 4879 c7 -7 15 -10 18 -7 3 3 -2 9 -12 12 -14 6 -15 5 -6 -5z"/>
<path d="M9134 4835 c0 -13 4 -21 9 -18 4 2 7 2 7 -1 0 -2 3 -13 6 -23 5 -15
4 -15 -5 -3 -5 8 -13 11 -17 7 -4 -4 -3 -12 4 -19 8 -8 15 -8 25 1 12 9 16 8
20 -4 7 -16 37 -10 37 7 0 7 -5 6 -13 -1 -11 -8 -16 -5 -25 14 -6 14 -17 25
-23 25 -6 0 -9 6 -6 14 3 8 0 17 -8 19 -8 4 -12 -2 -11 -18z"/>
<path d="M9099 4822 c-7 -15 -15 -31 -18 -36 -2 -5 1 -6 7 -2 6 3 13 -3 17
-14 3 -11 11 -20 16 -20 13 0 11 9 -6 26 -16 17 -21 39 -6 30 5 -3 11 3 14 14
8 31 -8 32 -24 2z"/>
<path d="M9179 4816 c13 -15 35 -16 48 -1 4 4 3 5 -4 1 -6 -3 -14 -2 -18 4 -3
5 -13 10 -22 10 -12 0 -13 -3 -4 -14z"/>
<path d="M9070 4760 c0 -5 7 -10 15 -10 8 0 15 5 15 10 0 6 -7 10 -15 10 -8 0
-15 -4 -15 -10z"/>
<path d="M9180 4746 c0 -2 7 -7 16 -10 8 -3 12 -2 9 4 -6 10 -25 14 -25 6z"/>
<path d="M1406 4655 c-3 -8 -3 -15 0 -15 3 0 12 7 20 15 13 13 13 15 1 15 -8
0 -17 -7 -21 -15z"/>
<path d="M9421 4625 c-1 -18 17 -37 30 -33 8 3 21 1 31 -3 11 -6 18 -4 21 5 4
9 0 13 -11 11 -9 -1 -20 3 -24 9 -5 8 -8 7 -8 -1 0 -7 -4 -13 -10 -13 -5 0 -7
8 -4 18 5 13 4 14 -4 3 -8 -11 -10 -11 -15 0 -3 8 -6 10 -6 4z"/>
<path d="M9505 4570 c-4 -6 -11 -8 -16 -4 -5 3 -8 0 -7 -7 2 -9 -9 -12 -37
-11 -22 1 -34 -1 -27 -4 10 -5 10 -9 1 -20 -7 -8 -10 -17 -7 -19 10 -11 98
-15 98 -5 0 6 -11 10 -24 10 -27 0 -47 19 -22 21 9 1 22 2 29 3 6 0 12 7 12
14 0 7 7 17 15 22 9 6 10 10 3 10 -6 0 -15 -5 -18 -10z"/>
<path d="M9575 4529 c-4 -6 -5 -12 -2 -15 2 -3 7 2 10 11 7 17 1 20 -8 4z"/>
<path d="M9464 4399 c0 -10 3 -16 7 -13 11 6 39 -7 34 -16 -3 -5 -1 -11 4 -15
6 -3 8 3 6 15 -5 28 -12 37 -33 42 -12 4 -18 -1 -18 -13z"/>
<path d="M9555 4379 c-4 -5 -11 -6 -17 -3 -7 5 -8 2 -3 -5 5 -9 11 -9 17 -3 6
6 17 8 24 5 8 -3 14 -3 14 0 0 10 -30 16 -35 6z"/>
<path d="M9614 4378 c-3 -5 0 -7 8 -6 7 2 12 -3 11 -9 -2 -7 3 -13 11 -13 9 0
12 7 9 18 -5 19 -30 25 -39 10z"/>
<path d="M9676 4372 c-3 -5 1 -9 9 -9 8 0 12 4 9 9 -3 4 -7 8 -9 8 -2 0 -6 -4
-9 -8z"/>
<path d="M9730 4306 c0 -2 7 -7 16 -10 8 -3 12 -2 9 4 -6 10 -25 14 -25 6z"/>
<path d="M9730 4280 c0 -5 5 -10 11 -10 5 0 7 5 4 10 -3 6 -8 10 -11 10 -2 0
-4 -4 -4 -10z"/>
<path d="M9700 4266 c0 -2 8 -10 18 -17 15 -13 16 -12 3 4 -13 16 -21 21 -21
13z"/>
<path d="M9699 4235 c-1 -3 -2 -11 -3 -17 -1 -7 -10 -11 -21 -10 -16 3 -18 1
-7 -9 14 -15 34 -1 38 26 2 13 -4 22 -7 10z"/>
<path d="M9818 4158 c5 -5 16 -8 23 -6 8 3 3 7 -10 11 -17 4 -21 3 -13 -5z"/>
<path d="M9890 4140 c0 -5 5 -10 11 -10 5 0 7 5 4 10 -3 6 -8 10 -11 10 -2 0
-4 -4 -4 -10z"/>
<path d="M9634 3994 c11 -8 13 -14 6 -19 -5 -3 -7 -11 -3 -18 4 -7 9 -4 13 9
9 25 3 41 -17 41 -14 0 -14 -2 1 -13z"/>
<path d="M9779 3966 c7 -8 9 -21 5 -27 -4 -8 -3 -9 4 -5 17 10 15 33 -4 40
-14 5 -15 4 -5 -8z"/>
<path d="M9753 3955 c0 -8 4 -15 9 -15 4 0 8 4 8 9 0 6 -4 12 -8 15 -5 3 -9
-1 -9 -9z"/>
<path d="M9739 3833 c-13 -17 -13 -17 6 -3 11 8 22 16 24 17 2 2 0 3 -6 3 -6
0 -17 -8 -24 -17z"/>
<path d="M9755 3800 c3 -5 8 -10 11 -10 2 0 4 5 4 10 0 6 -5 10 -11 10 -5 0
-7 -4 -4 -10z"/>
<path d="M9730 3777 c0 -10 8 -17 18 -17 9 0 13 4 7 8 -5 4 -13 11 -17 16 -5
5 -8 2 -8 -7z"/>
<path d="M9723 3715 c3 -6 -4 -21 -14 -34 -11 -13 -19 -18 -19 -12 0 6 -5 11
-11 11 -18 0 -4 -23 20 -31 14 -6 20 -5 16 1 -3 6 -2 10 3 10 6 0 13 -7 16
-16 3 -8 2 -12 -4 -9 -17 11 -11 -10 9 -32 17 -18 18 -22 4 -36 -10 -10 -12
-17 -4 -22 7 -3 10 -1 9 6 -3 13 3 15 43 18 11 0 18 5 14 11 -3 5 -12 7 -20 4
-11 -5 -13 1 -10 25 2 17 1 29 -3 27 -4 -2 -12 2 -19 9 -9 10 -8 14 8 18 11 3
19 0 19 -6 0 -7 4 -6 9 2 5 8 16 11 25 8 15 -6 21 4 17 26 -1 5 3 6 9 2 5 -3
10 -14 11 -23 0 -14 2 -13 8 3 5 11 7 23 4 28 -6 10 -43 9 -43 -2 0 -4 -10 -8
-22 -7 -14 1 -23 7 -22 17 1 11 -8 15 -28 15 -17 0 -27 -4 -25 -11z"/>
<path d="M9675 3600 c-3 -5 -1 -10 4 -10 6 0 11 5 11 10 0 6 -2 10 -4 10 -3 0
-8 -4 -11 -10z"/>
<path d="M9707 3599 c7 -7 15 -10 18 -7 3 3 -2 9 -12 12 -14 6 -15 5 -6 -5z"/>
<path d="M9700 3570 c12 -8 12 -10 1 -10 -9 0 -6 -7 9 -20 28 -25 33 -25 22
-2 -5 9 -8 22 -6 27 3 6 -6 11 -18 12 -18 2 -20 0 -8 -7z"/>
<path d="M9493 3512 c0 -12 5 -22 9 -22 11 0 10 12 -2 30 -7 12 -9 10 -7 -8z"/>
<path d="M9556 3522 c-3 -5 1 -9 9 -9 8 0 12 4 9 9 -3 4 -7 8 -9 8 -2 0 -6 -4
-9 -8z"/>
<path d="M9250 3461 c0 -7 -5 -9 -12 -5 -7 5 -8 3 -3 -5 5 -9 10 -10 18 -2 6
6 8 14 4 18 -4 3 -7 1 -7 -6z"/>
<path d="M7870 3340 c0 -5 7 -7 15 -4 8 4 15 8 15 10 0 2 -7 4 -15 4 -8 0 -15
-4 -15 -10z"/>
<path d="M8325 3340 c-3 -5 -1 -10 4 -10 6 0 11 5 11 10 0 6 -2 10 -4 10 -3 0
-8 -4 -11 -10z"/>
<path d="M8290 3336 c0 -2 8 -10 18 -17 15 -13 16 -12 3 4 -13 16 -21 21 -21
13z"/>
<path d="M7355 3320 c-8 -13 -1 -24 14 -19 6 3 7 10 2 18 -6 10 -10 10 -16 1z"/>
<path d="M7350 3286 c0 -2 7 -7 16 -10 8 -3 12 -2 9 4 -6 10 -25 14 -25 6z"/>
<path d="M750 2566 c0 -8 4 -17 8 -20 4 -2 8 4 8 15 0 10 -4 19 -8 19 -4 0 -8
-6 -8 -14z"/>
<path d="M9165 2540 c-3 -5 -12 -7 -20 -3 -8 3 -15 0 -15 -7 0 -6 5 -8 10 -5
6 3 10 1 10 -6 0 -8 3 -9 13 0 8 6 17 8 20 4 4 -3 7 1 7 10 0 18 -15 23 -25 7z"/>
<path d="M9035 2500 c-3 -5 -1 -10 4 -10 6 0 11 5 11 10 0 6 -2 10 -4 10 -3 0
-8 -4 -11 -10z"/>
<path d="M8866 2271 c-19 -21 -12 -28 13 -12 7 5 12 14 9 21 -2 7 -10 4 -22
-9z"/>
<path d="M4810 1951 c0 -6 4 -13 10 -16 6 -3 7 1 4 9 -7 18 -14 21 -14 7z"/>
<path d="M6068 1543 c7 -3 16 -2 19 1 4 3 -2 6 -13 5 -11 0 -14 -3 -6 -6z"/>
<path d="M6015 1520 c3 -5 8 -10 11 -10 2 0 4 5 4 10 0 6 -5 10 -11 10 -5 0
-7 -4 -4 -10z"/>
<path d="M6055 1516 c-16 -12 -16 -13 6 -11 13 1 29 -2 36 -7 7 -5 14 -5 17 1
4 5 15 8 26 6 11 -2 23 1 26 7 4 7 2 8 -4 4 -7 -4 -12 -2 -12 3 0 13 -22 10
-32 -4 -5 -7 -14 -6 -27 2 -15 9 -23 9 -36 -1z"/>
<path d="M6187 1503 c3 -7 16 -13 30 -13 30 0 22 16 -11 22 -17 4 -23 1 -19
-9z"/>
<path d="M6590 1371 c0 -5 7 -12 16 -15 14 -5 15 -4 4 9 -14 17 -20 19 -20 6z"/>
<path d="M8090 1224 c0 -8 5 -12 10 -9 6 4 8 11 5 16 -9 14 -15 11 -15 -7z"/>
</g>
</svg>
